<?xml version="1.0" standalone="no"?>
<!DOCTYPE svg PUBLIC "-//W3C//DTD SVG 20010904//EN"
 "http://www.w3.org/TR/2001/REC-SVG-20010904/DTD/svg10.dtd">
<svg version="1.0" xmlns="http://www.w3.org/2000/svg"
 width="860.000000pt" height="816.000000pt" viewBox="0 0 860.000000 816.000000"
 preserveAspectRatio="xMidYMid meet">
<metadata>
Created by potrace 1.15, written by Peter Selinger 2001-2017
</metadata>
<g transform="translate(0.000000,816.000000) scale(0.100000,-0.100000)"
fill="#000000" stroke="none">
<path d="M3975 7754 c-866 -58 -1625 -568 -2005 -1349 -110 -225 -171 -417
-217 -685 -25 -148 -25 -569 0 -720 88 -521 316 -971 677 -1330 240 -240 496
-408 811 -534 145 -58 201 -61 251 -17 l33 29 3 247 3 247 -38 -6 c-21 -3
-101 -8 -178 -12 -167 -8 -269 8 -372 57 -103 49 -161 114 -233 262 -80 165
-159 271 -249 331 -108 74 -127 116 -63 143 27 11 54 14 102 9 126 -11 231
-88 350 -257 38 -53 88 -112 110 -131 134 -116 305 -143 503 -81 61 19 77 28
77 43 0 49 53 182 95 239 29 40 41 63 33 65 -7 2 -51 9 -97 16 -472 66 -780
298 -904 681 -47 144 -61 249 -61 459 0 169 3 206 22 275 29 106 97 244 161
329 l53 69 -17 56 c-10 33 -19 108 -22 182 -6 132 7 225 45 339 l19 55 67 3
c45 2 92 -4 144 -18 89 -24 262 -105 377 -176 l80 -50 70 18 c181 46 250 53
530 53 278 0 289 -2 520 -51 l80 -17 65 42 c97 64 295 158 380 181 41 11 105
20 143 20 l68 0 15 -35 c58 -140 74 -370 35 -523 l-20 -83 49 -61 c63 -78 133
-219 161 -323 34 -123 38 -379 10 -545 -41 -242 -119 -413 -253 -555 -119
-126 -256 -209 -444 -268 -95 -30 -270 -67 -317 -67 -18 0 -36 -3 -40 -6 -3
-3 12 -29 34 -57 42 -57 83 -159 99 -251 6 -34 10 -226 10 -445 0 -365 1 -388
20 -418 38 -63 103 -63 264 2 403 162 766 440 1021 780 235 314 374 630 451
1030 25 129 27 160 28 405 1 213 -3 286 -17 370 -46 269 -107 460 -217 685
-350 719 -1018 1210 -1802 1325 -126 19 -390 31 -503 24z"/>
<path d="M1038 2689 c-101 -12 -247 -60 -331 -110 -186 -110 -319 -327 -372
-608 -24 -122 -38 -336 -30 -466 19 -360 97 -572 272 -742 89 -88 207 -150
358 -190 92 -24 117 -26 305 -27 136 -1 225 3 265 12 105 23 218 62 290 100
l70 37 0 535 0 535 -360 0 -360 0 -3 -179 c-2 -123 1 -183 9 -192 9 -11 44
-14 145 -14 l134 0 0 -204 c0 -238 17 -212 -150 -222 -288 -17 -435 93 -506
376 -16 62 -19 111 -18 290 0 186 3 225 22 291 55 201 155 308 329 353 93 24
322 21 443 -5 52 -12 109 -23 126 -26 l31 -5 43 178 c48 203 52 187 -49 224
-156 59 -441 84 -663 59z"/>
<path d="M3845 2608 c-3 -7 -4 -465 -3 -1018 l3 -1005 210 0 210 0 5 435 5
435 297 3 298 2 2 -437 3 -438 204 -3 c142 -2 208 1 217 9 12 10 14 174 14
1009 0 835 -2 999 -14 1009 -9 8 -75 11 -217 9 l-204 -3 -3 -378 -2 -377 -298
2 -297 3 -5 375 -5 375 -208 3 c-160 2 -209 0 -212 -10z"/>
<path d="M6985 2608 c-3 -7 -4 -465 -3 -1018 l3 -1005 152 -3 152 -3 10 38 c6
21 11 44 11 51 0 17 3 16 53 -18 95 -64 206 -98 352 -107 360 -22 532 149 576
569 16 156 7 400 -20 503 -58 220 -181 349 -369 385 -133 26 -325 0 -444 -61
-20 -10 -40 -19 -42 -19 -3 0 -7 156 -8 348 l-3 347 -208 3 c-160 2 -209 0
-212 -10z m754 -972 c45 -24 89 -82 108 -144 14 -45 18 -91 18 -222 -1 -229
-28 -315 -111 -355 -52 -24 -207 -17 -286 14 l-58 22 0 318 c0 243 3 321 13
329 54 45 256 69 316 38z"/>
<path d="M2265 2571 c-149 -38 -229 -182 -180 -322 35 -99 121 -159 227 -159
100 0 173 46 214 135 46 97 26 212 -47 282 -56 52 -149 80 -214 64z"/>
<path d="M2907 2364 c-4 -4 -7 -96 -7 -205 l0 -198 -37 -10 c-21 -5 -67 -17
-103 -26 -36 -9 -71 -22 -78 -27 -9 -8 -12 -46 -10 -147 l3 -136 112 -3 111
-3 4 -362 3 -362 27 -73 c46 -128 127 -203 263 -244 116 -36 356 -28 438 14
16 8 17 24 15 161 l-3 152 -112 5 c-125 6 -153 18 -186 81 -15 30 -17 64 -15
329 l3 295 150 3 c104 2 152 6 157 15 9 14 11 308 2 331 -5 14 -29 16 -160 16
l-154 0 -2 198 -3 197 -206 3 c-113 1 -208 -1 -212 -4z"/>
<path d="M2097 1963 c-4 -3 -7 -311 -7 -683 0 -512 3 -679 12 -688 9 -9 69
-12 210 -12 185 0 198 1 208 19 11 21 15 1326 4 1355 -5 14 -34 16 -213 16
-114 0 -211 -3 -214 -7z"/>
<path d="M5499 1949 c-8 -15 -10 -163 -6 -528 5 -551 7 -579 64 -683 76 -140
242 -207 482 -195 138 7 204 23 330 83 51 24 95 44 97 44 2 0 4 -10 4 -22 0
-13 3 -33 6 -46 6 -22 9 -22 149 -22 121 0 144 2 149 16 3 9 6 316 6 683 0
505 -3 670 -12 679 -9 9 -69 12 -208 12 -139 0 -199 -3 -208 -12 -9 -9 -12
-135 -12 -504 l0 -493 -57 -28 c-53 -25 -68 -28 -164 -28 -93 0 -110 3 -129
20 -49 43 -50 53 -50 545 0 299 -4 468 -10 481 -10 18 -23 19 -215 19 -197 0
-205 -1 -216 -21z"/>
</g>
</svg>
