<?xml version="1.0" encoding="UTF-8" standalone="no"?>
<svg
   xmlns:dc="http://purl.org/dc/elements/1.1/"
   xmlns:cc="http://creativecommons.org/ns#"
   xmlns:rdf="http://www.w3.org/1999/02/22-rdf-syntax-ns#"
   xmlns:svg="http://www.w3.org/2000/svg"
   xmlns="http://www.w3.org/2000/svg"
   version="1.1"
   id="svg2"
   xml:space="preserve"
   width="790.328"
   height="319.00534"
   viewBox="0 0 790.328 319.00534"><metadata
     id="metadata8"><rdf:RDF><cc:Work
         rdf:about=""><dc:format>image/svg+xml</dc:format><dc:type
           rdf:resource="http://purl.org/dc/dcmitype/StillImage" /><dc:title></dc:title></cc:Work></rdf:RDF></metadata><defs
     id="defs6" /><g
     id="g10"
     transform="matrix(1.3333333,0,0,-1.3333333,0,581.97199)"><g
       id="g12"
       transform="scale(0.1)"><path
         d="m 392.66,3772.75 c 288.274,226.63 -71.945,488.01 -73.14,592.04 C 200.352,4235.91 -5.19922,3721.8 392.66,3772.75"
         style="fill:#769a2a;fill-opacity:1;fill-rule:evenodd;stroke:none"
         id="path64" /><path
         d="M 1113.11,3346.24 C 672.289,3771.39 350.547,2972.38 184.156,2919.01 422.797,2760.55 1302,2630.73 1113.11,3346.24"
         style="fill:#769a2a;fill-opacity:1;fill-rule:evenodd;stroke:none"
         id="path66" /><path
         d="m 1346.56,3369.2 c -417.267,320.5 220.74,695.45 244.91,843.6 164.99,-182.62 387.04,-913.15 -244.91,-843.6"
         style="fill:#769a2a;fill-opacity:1;fill-rule:evenodd;stroke:none"
         id="path68" /><path
         d="m 374.145,3724.53 c -42.344,66.35 -31.301,49.79 -22.657,124.42 98.942,-148.13 286.672,-471.41 467.93,-498.13 304.302,-44.84 679.202,275.13 1065.452,-87.34 62.3,-58.46 179.81,-169.03 168.99,-260.44 -45.07,-379.94 -70.21,-73.53 -215.65,104.11 -400.73,489.52 -882.491,-35.97 -1202.843,279.69 -87.969,86.68 -188.355,234.51 -261.222,337.69"
         style="fill:#9ac421;fill-opacity:1;fill-rule:evenodd;stroke:none"
         id="path70" /><path
         d="m 3362.3,2214.95 c 177.15,83.58 662.15,200 648.74,426.65 -7.64,128.92 -128.25,213.7 -178.66,331.68 -78.65,135.84 -131.83,54.08 -279.04,110.24 -83.42,31.83 -75.76,-71.93 -350.68,103.59 -178.03,113.7 -411.11,289.18 -628.28,177.53 -176.82,-88.29 -313,-125.21 -480.67,-198.92 -395.41,-185.99 -251.35,-420.8 -879.98,-534.15 -118.67,-21.41 -593.179,-102 -655.687,-166.01 -73.164,-74.91 -43.137,-143.29 71.641,-150.18 261.101,-15.74 444.056,-40.16 701.336,-72.47 386.25,-48.51 641.39,-7.06 1014.94,2.96 162.58,4.35 279.39,-9.8 438.01,-42.74 239.19,-58.77 336.46,-84.58 578.33,11.82"
         style="fill:#603516;fill-opacity:1;fill-rule:evenodd;stroke:none"
         id="path72" /><path
         d="m 3362.3,2214.95 c 177.15,83.58 662.15,200 648.74,426.65 -7.64,128.92 -128.25,213.7 -178.66,331.68 -78.65,135.84 -131.83,54.08 -279.04,110.24 -83.42,31.83 -75.76,-71.93 -350.68,103.59 -13.87,8.86 -28.05,18.08 -42.54,27.52 -2.19,-46.16 -8.46,-95.32 -19.38,-147.7 -103.01,-322.94 -371.57,-476.79 -697.71,-497.27 -424.16,-26.61 -420.52,14.85 -859.35,-121.5 -294.21,-91.41 -412.23,-108.44 -722.426,-104.59 -170.766,2.95 -267.774,14.07 -342.926,47.18 -1.441,-40.87 37.309,-70.92 111.356,-75.37 261.101,-15.74 444.056,-40.16 701.336,-72.47 386.25,-48.51 641.39,-7.06 1014.94,2.96 162.58,4.35 279.39,-9.8 438.01,-42.74 239.19,-58.77 336.46,-84.58 578.33,11.82"
         style="fill:#3a2215;fill-opacity:1;fill-rule:evenodd;stroke:none"
         id="path74" /><path
         d="m 4587.97,1972.25 c 737.75,0 1339.49,86.92 1339.49,193.52 0,106.58 -601.74,193.51 -1339.49,193.51 -737.79,0 -1339.51,-86.93 -1339.51,-193.51 0,-106.6 601.72,-193.52 1339.51,-193.52"
         style="fill:#e8e8e7;fill-opacity:1;fill-rule:evenodd;stroke:none"
         id="path76" /><path
         d="m 3255.59,3353.61 c -147,-610.15 -73.54,-1151.16 164.14,-1208.42 l 227.65,-54.85 40.3,167.2 c 168.69,165.85 333.24,493.23 428.53,888.71 95.29,395.49 97.89,761.88 23.24,986.36 l 40.3,167.21 -227.68,54.86 c -237.66,57.25 -549.47,-390.94 -696.48,-1001.07"
         style="fill:#a33a1f;fill-opacity:1;fill-rule:evenodd;stroke:none"
         id="path78" /><path
         d="m 3483.24,3298.76 c -146.99,-610.14 -73.49,-1151.17 164.14,-1208.42 237.66,-57.28 549.5,390.92 696.51,1001.06 146.97,610.14 73.49,1151.16 -164.14,1208.42 -237.68,57.27 -549.5,-390.94 -696.51,-1001.06"
         style="fill:#5a2213;fill-opacity:1;fill-rule:evenodd;stroke:none"
         id="path80" /><path
         d="m 3557.87,3280.77 c -131.8,-547.12 -65.92,-1032.28 147.21,-1083.61 14.84,-3.59 30.06,-4.88 45.51,-4.17 l 1409.18,-128.59 378.22,1569.73 -1313.15,527.29 c -13.41,7.68 -27.55,13.44 -42.4,17.02 -213.12,51.36 -492.73,-350.55 -624.57,-897.67"
         style="fill:#a33a1f;fill-opacity:1;fill-rule:evenodd;stroke:none"
         id="path82" /><path
         d="m 3557.87,3280.77 c -131.8,-547.12 -65.92,-1032.28 147.21,-1083.61 14.84,-3.59 30.06,-4.88 45.51,-4.17 L 5159.77,2064.4 5447.4,3258.24 5369.41,3574.5 C 5052.32,3357.91 4796.95,3040.46 4637.93,2565.45 4608.2,2476.7 4523.16,2422.08 4430.1,2432 c -96.27,10.24 -192.54,20.49 -288.79,30.72 -199.77,21.27 -357.01,159.5 -403.69,354.89 -101.92,426.64 30.92,851.84 222.01,1276.65 -157.31,-142.73 -313.01,-445.2 -401.76,-813.49"
         style="fill:#882e1b;fill-opacity:1;fill-rule:evenodd;stroke:none"
         id="path84" /><path
         d="m 5043.16,2922.91 c -104.43,-433.46 -52.22,-817.85 116.61,-858.51 168.82,-40.69 390.37,277.73 494.8,711.21 104.45,433.47 52.25,817.84 -116.58,858.52 -168.85,40.68 -390.39,-277.74 -494.83,-711.22"
         style="fill:#5a2213;fill-opacity:1;fill-rule:evenodd;stroke:none"
         id="path86" /><path
         d="m 5275.21,2867.01 c -25.15,-104.44 -12.57,-197.03 28.11,-206.83 40.66,-9.81 94.04,66.9 119.2,171.34 25.16,104.42 12.58,197.03 -28.09,206.82 -40.68,9.81 -94.04,-66.91 -119.22,-171.33"
         style="fill:#261712;fill-opacity:1;fill-rule:evenodd;stroke:none"
         id="path88" /><path
         d="m 4242.54,4017.85 c -375.84,74.87 -373.56,-404.99 -276.23,-643.38 117.42,-287.69 354.39,-496.78 666.21,-319.3 193.07,109.89 757.95,498.94 325.86,688.56 -192.09,84.31 -414.71,157.98 -617.72,236.27 l -98.12,37.85"
         style="fill:#bc4c1f;fill-opacity:1;fill-rule:evenodd;stroke:none"
         id="path90" /><path
         d="m 971.469,2485.77 c 337.501,-43.15 739.191,-2.18 1028.591,186.13 362.44,235.8 366.25,127.24 715.57,248.03 369.47,127.75 245.27,370.4 -107.22,341.45 -699.55,-57.46 -651.97,-525.17 -1132.98,-620.2 -188.34,-37.22 -307.09,-24.12 -509.508,-86.05 -88.496,-30.21 -75.301,-48.95 5.547,-69.36"
         style="fill:#78441a;fill-opacity:1;fill-rule:evenodd;stroke:none"
         id="path92" /><path
         d="M 454.867,3640.2 C 485.027,3858.03 72.3984,3759.86 0,3792.51 11.7734,3691.21 232.969,3423.23 454.867,3640.2"
         style="fill:#769a2a;fill-opacity:1;fill-rule:evenodd;stroke:none"
         id="path94" /><path
         d="m 457.566,3686.78 c -85.785,252.68 216.946,298.46 254.985,367.1 22.824,-127.83 -42.567,-542.02 -254.985,-367.1"
         style="fill:#769a2a;fill-opacity:1;fill-rule:evenodd;stroke:none"
         id="path96" /></g></g></svg>