<?xml version="1.0" encoding="utf-8"?>
<!-- Generator: Adobe Illustrator 22.0.1, SVG Export Plug-In . SVG Version: 6.00 Build 0)  -->
<svg version="1.1" id="Capa_1" xmlns="http://www.w3.org/2000/svg" xmlns:xlink="http://www.w3.org/1999/xlink" x="0px" y="0px"
	 viewBox="0 0 870 319" style="enable-background:new 0 0 870 319;" xml:space="preserve">
<style type="text/css">
	.st0{fill:#0084D2;}
	.st1{fill:#006FC6;}
	.st2{fill:#009CDE;}
	.st3{fill:#FFFFFF;}
	.st4{fill:#1F93D7;}
	.st5{clip-path:url(#XMLID_83_);}
	.st6{fill:none;stroke:#FFFFFF;stroke-width:0.5;stroke-miterlimit:10;}
	.st7{clip-path:url(#XMLID_84_);}
</style>
<rect class="st0" width="870" height="319"/>
<g>
	<g>
		<path class="st3" d="M65.6,139.1V82.6h15.8c5.6,0,10,1.2,13.1,3.7c3.1,2.5,4.7,6.2,4.7,11.2c0,2.9-0.8,5.4-2.4,7.6
			c-1.6,2.2-3.7,3.6-6.4,4.5c3.3,0.6,6,2.2,8,4.9c2.1,2.6,3.1,5.6,3.1,9c0,5-1.6,8.9-4.7,11.7c-3.1,2.7-7.3,4.1-12.6,4.1H65.6z
			 M70,107.9h12.4c3.9,0,6.9-0.9,9.1-2.7c2.1-1.8,3.2-4.4,3.2-7.9c0-3.6-1.1-6.3-3.4-8.1s-5.6-2.7-10-2.7H70V107.9z M70,111.9v23.3
			h14.3c4,0,7.1-1,9.4-3.1c2.3-2.1,3.4-4.9,3.4-8.6c0-3.4-1-6.2-3.1-8.3c-2.1-2.2-5.1-3.3-9-3.3H70z"/>
		<path class="st3" d="M109,117.5c0-6.2,1.6-11.3,4.9-15.2c3.2-4,7.5-5.9,12.9-5.9c5.4,0,9.7,2,12.9,5.9c3.2,4,4.9,9,4.9,15.2v1.3
			c0,6.2-1.6,11.3-4.8,15.3c-3.2,4-7.5,5.9-12.9,5.9c-5.4,0-9.7-2-13-5.9c-3.2-4-4.9-9-4.9-15.3V117.5z M113.4,118.8
			c0,4.9,1.2,9,3.5,12.3c2.4,3.3,5.6,5,9.8,5c4.1,0,7.4-1.7,9.7-5c2.4-3.3,3.5-7.4,3.5-12.3v-1.3c0-4.8-1.2-8.9-3.6-12.2
			c-2.4-3.3-5.6-5-9.8-5c-4.2,0-7.4,1.7-9.8,5c-2.4,3.3-3.5,7.4-3.5,12.2V118.8z"/>
		<path class="st3" d="M158.8,139.1h-4.4V78.5h4.4V139.1z"/>
		<path class="st3" d="M195.1,128.4c0-2-0.8-3.7-2.3-5.2c-1.5-1.5-4.3-2.7-8.4-3.6c-4.8-1.1-8.3-2.5-10.6-4.3
			c-2.3-1.8-3.4-4.3-3.4-7.6c0-3.2,1.3-5.9,3.9-8.1c2.6-2.2,6-3.3,10.3-3.3c4.5,0,8.1,1.2,10.8,3.5c2.6,2.3,3.9,5.3,3.8,8.8
			l-0.1,0.2h-4.1c0-2.3-0.9-4.3-2.8-6c-1.9-1.7-4.4-2.6-7.6-2.6c-3.2,0-5.7,0.7-7.3,2.2c-1.6,1.5-2.4,3.2-2.4,5.1
			c0,1.9,0.7,3.5,2.1,4.8c1.4,1.3,4.2,2.4,8.4,3.3c4.8,1.1,8.4,2.6,10.7,4.6c2.4,1.9,3.6,4.6,3.6,7.9c0,3.5-1.4,6.3-4.1,8.5
			c-2.7,2.2-6.3,3.3-10.8,3.3c-4.9,0-8.7-1.2-11.5-3.7c-2.8-2.4-4.1-5.3-4-8.7l0.1-0.2h4.1c0.2,3,1.4,5.2,3.5,6.6
			c2.2,1.4,4.8,2,7.7,2c3.2,0,5.8-0.7,7.6-2.2C194.2,132.3,195.1,130.5,195.1,128.4z"/>
		<path class="st3" d="M235.3,139.1c-0.3-1.4-0.5-2.7-0.6-3.7c-0.1-1-0.2-2.1-0.2-3.1c-1.5,2.2-3.5,4-5.9,5.5s-5.3,2.2-8.4,2.2
			c-3.9,0-7-1.1-9.1-3.3c-2.2-2.2-3.2-5.1-3.2-8.7c0-3.9,1.6-7,4.8-9.3s7.5-3.5,13-3.5h8.9v-5.2c0-3-0.9-5.4-2.8-7.1
			s-4.4-2.6-7.7-2.6c-3.1,0-5.7,0.8-7.7,2.4c-2,1.6-3.1,3.6-3.1,6l-4.1,0l-0.1-0.2c-0.1-3.1,1.2-5.9,4.1-8.4c2.9-2.5,6.6-3.7,11-3.7
			c4.4,0,8,1.2,10.7,3.5c2.7,2.4,4,5.7,4,10.1v20.7c0,1.5,0.1,2.9,0.2,4.3c0.2,1.4,0.4,2.8,0.8,4.2H235.3z M220.7,135.8
			c3.2,0,6-0.8,8.5-2.4c2.5-1.6,4.2-3.6,5.3-6v-8.8h-8.9c-4,0-7.3,0.9-9.7,2.7c-2.4,1.8-3.6,4-3.6,6.7c0,2.3,0.7,4.1,2.2,5.6
			C215.9,135.1,218,135.8,220.7,135.8z"/>
		<path class="st3" d="M267.5,118.5c0-6.7,1.4-12.1,4.1-16.1c2.7-4,6.5-6,11.3-6c2.8,0,5.2,0.6,7.3,1.9c2.1,1.2,3.8,3,5.1,5.3V78.5
			h4.4v60.6h-3.9l-0.4-6.1c-1.3,2.2-3.1,3.9-5.2,5.1c-2.1,1.2-4.6,1.8-7.4,1.8c-4.8,0-8.6-1.9-11.3-5.6c-2.7-3.7-4.1-8.8-4.1-15.1
			V118.5z M271.9,119.3c0,5.1,1,9.2,2.9,12.2c1.9,3,4.9,4.5,8.8,4.5c2.9,0,5.3-0.7,7.2-2c1.9-1.4,3.4-3.2,4.5-5.6v-19.8
			c-1-2.4-2.5-4.4-4.3-6c-1.9-1.5-4.3-2.3-7.3-2.3c-3.9,0-6.9,1.7-8.8,5.1c-2,3.4-3,7.7-3,13.1V119.3z"/>
		<path class="st3" d="M326.6,140c-5,0-9.2-1.9-12.5-5.8c-3.3-3.9-5-8.8-5-14.8v-2.1c0-6,1.7-11,5-15c3.3-4,7.3-5.9,12-5.9
			c4.9,0,8.8,1.6,11.6,4.9c2.8,3.3,4.2,7.6,4.2,13.1v4h-28.4v1.1c0,4.7,1.2,8.7,3.6,11.9c2.4,3.2,5.6,4.8,9.5,4.8
			c2.8,0,5.1-0.4,7.1-1.2c2-0.8,3.6-2,5-3.5l1.9,3.2c-1.5,1.7-3.4,3-5.7,4C332.6,139.5,329.8,140,326.6,140z M326.1,100.3
			c-3.3,0-6.1,1.3-8.3,3.9c-2.2,2.6-3.5,5.9-3.9,9.9l0.1,0.2h23.5v-1.2c0-3.6-1-6.7-3.1-9.1C332.4,101.5,329.6,100.3,326.1,100.3z"
			/>
		<path class="st3" d="M107.2,165.4H88.5V218h-4.5v-52.6H65.5v-4h41.7V165.4z"/>
		<path class="st3" d="M130.4,180l-3.3-0.2c-2.8,0-5.1,0.8-6.9,2.5c-1.8,1.6-3.1,3.9-3.8,6.8v29h-4.5v-42h3.9l0.6,7v0.5
			c1.2-2.6,2.7-4.6,4.7-6.1c2-1.5,4.3-2.2,7-2.2c0.6,0,1.1,0,1.7,0.1c0.5,0.1,1,0.2,1.3,0.3L130.4,180z"/>
		<path class="st3" d="M163.3,218c-0.3-1.4-0.5-2.7-0.6-3.7c-0.1-1-0.2-2.1-0.2-3.1c-1.5,2.2-3.5,4-5.9,5.5
			c-2.5,1.5-5.3,2.2-8.4,2.2c-3.9,0-7-1.1-9.1-3.3c-2.2-2.2-3.2-5.1-3.2-8.7c0-3.9,1.6-7,4.8-9.3s7.5-3.5,13-3.5h8.9v-5.2
			c0-3-0.9-5.4-2.8-7.1c-1.8-1.7-4.4-2.6-7.7-2.6c-3.1,0-5.7,0.8-7.7,2.4c-2,1.6-3.1,3.6-3.1,6l-4.1,0l-0.1-0.2
			c-0.1-3.1,1.2-5.9,4.1-8.4c2.9-2.5,6.6-3.7,11-3.7c4.4,0,8,1.2,10.7,3.5c2.7,2.4,4,5.7,4,10.1v20.7c0,1.5,0.1,2.9,0.2,4.3
			c0.2,1.4,0.4,2.8,0.8,4.2H163.3z M148.7,214.7c3.2,0,6-0.8,8.5-2.4c2.5-1.6,4.2-3.6,5.3-6v-8.8h-9c-4,0-7.3,0.9-9.7,2.7
			s-3.6,4-3.6,6.7c0,2.3,0.7,4.1,2.2,5.6C143.9,214,146,214.7,148.7,214.7z"/>
		<path class="st3" d="M211.1,198.2c0,6.3-1.4,11.3-4.1,15.1s-6.5,5.6-11.3,5.6c-2.9,0-5.5-0.6-7.6-1.8c-2.1-1.2-3.9-3-5.2-5.3
			l-0.5,6.3h-3.8v-60.6h4.5v25.2c1.3-2.4,3-4.2,5.1-5.5c2.1-1.3,4.6-1.9,7.4-1.9c4.8,0,8.6,2,11.3,6s4.1,9.4,4.1,16.1V198.2z
			 M206.6,197.3c0-5.4-1-9.8-3-13.1c-2-3.4-4.9-5.1-8.8-5.1c-3.1,0-5.6,0.8-7.5,2.4s-3.3,3.7-4.2,6.2v19.1c1,2.4,2.5,4.4,4.4,5.8
			c2,1.4,4.4,2.2,7.3,2.2c3.9,0,6.8-1.5,8.8-4.5c2-3,2.9-7.1,2.9-12.2V197.3z"/>
		<path class="st3" d="M246.5,218c-0.3-1.4-0.5-2.7-0.6-3.7c-0.1-1-0.2-2.1-0.2-3.1c-1.5,2.2-3.5,4-5.9,5.5
			c-2.5,1.5-5.3,2.2-8.4,2.2c-3.9,0-7-1.1-9.1-3.3c-2.2-2.2-3.2-5.1-3.2-8.7c0-3.9,1.6-7,4.8-9.3c3.2-2.3,7.5-3.5,13-3.5h8.9v-5.2
			c0-3-0.9-5.4-2.8-7.1c-1.8-1.7-4.4-2.6-7.7-2.6c-3.1,0-5.7,0.8-7.7,2.4c-2,1.6-3.1,3.6-3.1,6l-4.1,0l-0.1-0.2
			c-0.1-3.1,1.2-5.9,4.1-8.4c2.9-2.5,6.6-3.7,11-3.7c4.4,0,8,1.2,10.7,3.5c2.7,2.4,4,5.7,4,10.1v20.7c0,1.5,0.1,2.9,0.2,4.3
			c0.2,1.4,0.4,2.8,0.8,4.2H246.5z M231.9,214.7c3.2,0,6-0.8,8.5-2.4c2.5-1.6,4.2-3.6,5.3-6v-8.8h-8.9c-4,0-7.3,0.9-9.7,2.7
			c-2.4,1.8-3.6,4-3.6,6.7c0,2.3,0.7,4.1,2.2,5.6C227.2,214,229.3,214.7,231.9,214.7z"/>
		<path class="st3" d="M267.2,176v45.5c0,4.3-1,7.7-3,10c-2,2.3-4.7,3.5-8.2,3.5c-0.7,0-1.4-0.1-2.1-0.2c-0.7-0.1-1.3-0.3-2.1-0.5
			l0.5-3.9c0.4,0.1,0.9,0.3,1.6,0.4c0.7,0.1,1.3,0.2,1.8,0.2c2.2,0,3.9-0.8,5.2-2.4c1.2-1.6,1.9-3.9,1.9-7.1V176H267.2z M267,163.8
			h-4.4v-6.4h4.4V163.8z"/>
		<path class="st3" d="M277.4,196.4c0-6.2,1.6-11.3,4.9-15.2c3.2-4,7.5-5.9,12.9-5.9c5.4,0,9.7,2,12.9,5.9c3.2,4,4.9,9,4.9,15.2v1.3
			c0,6.2-1.6,11.3-4.8,15.3c-3.2,4-7.5,5.9-12.9,5.9c-5.4,0-9.7-2-13-5.9c-3.2-4-4.9-9-4.9-15.3V196.4z M281.9,197.6
			c0,4.9,1.2,9,3.5,12.3c2.4,3.3,5.6,5,9.8,5c4.1,0,7.4-1.7,9.7-5c2.4-3.3,3.5-7.4,3.5-12.3v-1.3c0-4.8-1.2-8.9-3.6-12.2
			c-2.4-3.3-5.6-5-9.8-5c-4.2,0-7.4,1.7-9.8,5c-2.4,3.3-3.5,7.4-3.5,12.2V197.6z"/>
	</g>
	<g id="XMLID_1_">
		<g id="XMLID_68_">
			<path id="XMLID_80_" class="st3" d="M641.2,143.4h-4.6v-3.2h4.6v-4c0-4.6,1-8.1,7.4-8.1c1.1,0,1.7,0.1,2.4,0.2v3.2
				c-0.6-0.1-1.1-0.2-1.8-0.2c-2.8,0-4.1,1.1-4.1,5v4h6v3.2h-6V174h-3.8V143.4z"/>
			<path id="XMLID_77_" class="st3" d="M656.7,128.6h3.8v6.5h-3.8V128.6z M656.7,140.2h3.8V174h-3.8V140.2z"/>
			<path id="XMLID_75_" class="st3" d="M669.4,140.2h3.8v23.8c0,5.5,1.8,7.6,5.9,7.6c4.3,0,7.4-3.4,7.4-8.7v-22.7h3.8V174h-3.4v-4.7
				h-0.1c-1.9,3.8-5.2,5.5-8.7,5.5c-5.2,0-8.7-2.7-8.7-9V140.2z"/>
			<path id="XMLID_72_" class="st3" d="M698.6,128.6h3.8v16.7h0.1c0.8-3.6,3.7-5.9,7.9-5.9c7.4,0,10.8,6,10.8,17.6
				c0,11.7-3.4,17.7-10.8,17.7c-4,0-7.3-2.5-8.3-6.4H702v5.6h-3.4V128.6z M709.8,171.6c3.8,0,7.4-2,7.4-14.5
				c0-12.5-3.6-14.4-7.4-14.4c-3.9,0-7.4,2-7.4,14.4C702.4,169.7,705.9,171.6,709.8,171.6z"/>
			<path id="XMLID_69_" class="st3" d="M727.8,150.3c0-6.9,3.3-10.8,10.4-10.8c7,0,9.5,3.6,9.5,9v20c0,1.9,0.6,2.8,2,2.8h1.1v2.8
				c-0.7,0.3-1.3,0.4-1.8,0.4c-3,0-4.9-0.7-4.9-4.2v-1.1H744c-1.5,4.5-5,5.7-8.7,5.7c-5.9,0-8.6-3.7-8.6-9.5c0-4.5,2-8,6.8-9.4
				l7.2-2c2.7-0.8,3.2-1.4,3.2-5.3c0-4.3-2.4-5.9-5.9-5.9c-4.5,0-6.5,2.7-6.5,7.6H727.8z M744,154.9h-0.1c-0.4,1.1-2.5,1.8-4.1,2.2
				l-3.2,0.8c-3.8,1-5.8,3-5.8,7c0,3.9,2,6.6,5.3,6.6c4.6,0,7.8-3.5,7.8-9.5V154.9z"/>
		</g>
		<g id="XMLID_58_">
			<path id="XMLID_66_" class="st3" d="M564.8,161.3c0,9-5.3,13.4-14.3,13.4c-9,0-14.2-4.4-14.2-13.4v-20.8h7.4v20.8
				c0,3.7,0.9,7.3,6.9,7.3c5.2,0,6.9-2.3,6.9-7.3v-20.8h7.4V161.3z"/>
			<path id="XMLID_62_" class="st3" d="M571.1,140.5h15.7c6.4,0,10.7,2.1,10.7,8.3c0,3.3-1.6,5.6-4.5,7c4.1,1.2,6.1,4.3,6.1,8.5
				c0,6.8-5.8,9.7-11.8,9.7h-16.2V140.5z M578.4,154.1h7.4c2.6,0,4.5-1.2,4.5-4c0-3.2-2.4-3.8-5.1-3.8h-6.9V154.1z M578.4,168.3h7.9
				c2.9,0,5.4-0.9,5.4-4.4c0-3.4-2.2-4.8-5.3-4.8h-8V168.3z"/>
			<path id="XMLID_59_" class="st3" d="M613.2,140.5h7.5l12.5,33.5h-7.6l-2.5-7.4h-12.5L608,174h-7.4L613.2,140.5z M612.5,161.1h8.7
				l-4.2-12.3h-0.1L612.5,161.1z"/>
		</g>
		<path id="XMLID_57_" class="st3" d="M532.1,169.9c0,2.5-2,4.6-4.6,4.6c-2.5,0-4.6-2-4.6-4.6c0-2.5,2-4.6,4.6-4.6
			C530.1,165.4,532.1,167.4,532.1,169.9z"/>
		<g id="XMLID_9_">
			<path id="XMLID_55_" class="st3" d="M640.3,187.8h6.7v1h-5.5v4.9h5.1v1h-5.1v6.5h-1.2V187.8z"/>
			<path id="XMLID_52_" class="st3" d="M651,187.8h1.5l4,13.4h-1.3l-1.1-3.9h-4.7l-1.1,3.9h-1.3L651,187.8z M653.9,196.3l-2.1-7.6h0
				l-2.1,7.6H653.9z"/>
			<path id="XMLID_50_" class="st3" d="M666.3,196.7c-0.2,3.1-1.6,4.8-4,4.8c-2.7,0-4.3-2.1-4.3-6.9s1.5-6.9,4.3-6.9
				c2.7,0,3.9,1.9,3.9,4.1H665c0-1.8-0.9-3.1-2.7-3.1c-1.9,0-3.1,1.6-3.1,5.9c0,4.3,1.2,5.9,3.1,5.9c1.7,0,2.7-1.5,2.8-3.8H666.3z"
				/>
			<path id="XMLID_48_" class="st3" d="M668.3,187.8h1.2v9.7c0,2,0.9,3,2.6,3c1.8,0,2.6-1,2.6-3v-9.7h1.2v9.7c0,2.8-1.4,4-3.8,4
				c-2.5,0-3.8-1.2-3.8-4V187.8z"/>
			<path id="XMLID_46_" class="st3" d="M678.4,187.8h1.2v12.4h5.6v1h-6.8V187.8z"/>
			<path id="XMLID_44_" class="st3" d="M688.2,188.8h-3.5v-1h8.1v1h-3.5v12.4h-1.2V188.8z"/>
			<path id="XMLID_41_" class="st3" d="M696.4,187.8h1.5l4,13.4h-1.3l-1.1-3.9h-4.7l-1.1,3.9h-1.3L696.4,187.8z M699.3,196.3
				l-2.1-7.6h0l-2.1,7.6H699.3z"/>
			<path id="XMLID_38_" class="st3" d="M703.5,187.8h3.2c3.9,0,4.9,2.3,4.9,6.7c0,4.4-1,6.7-4.9,6.7h-3.2V187.8z M704.7,200.2h2
				c2.6,0,3.7-1.3,3.7-5.7c0-4.4-1.1-5.7-3.7-5.7h-2V200.2z"/>
			<path id="XMLID_35_" class="st3" d="M719.3,187.8h3.2c3.9,0,4.9,2.3,4.9,6.7c0,4.4-1,6.7-4.9,6.7h-3.2V187.8z M720.5,200.2h2
				c2.6,0,3.7-1.3,3.7-5.7c0-4.4-1.1-5.7-3.7-5.7h-2V200.2z"/>
			<path id="XMLID_33_" class="st3" d="M729.9,187.8h6.7v1h-5.5v4.9h5.1v1h-5.1v5.5h5.6v1h-6.8V187.8z"/>
			<path id="XMLID_31_" class="st3" d="M744,187.8h1.2v13.4H744V187.8z"/>
			<path id="XMLID_29_" class="st3" d="M748,187.8h1.6l5.1,11.7h0v-11.7h1.2v13.4h-1.6l-5.1-11.7h0v11.7H748V187.8z"/>
			<path id="XMLID_27_" class="st3" d="M762.5,195.4v-1h4.3v6.9h-0.9V199h0c-0.4,1.5-1.6,2.4-3,2.4c-2.7,0-4.3-2.1-4.3-6.9
				s1.5-6.9,4.3-6.9c2.6,0,3.7,1.7,3.9,4h-1.2c0-1.6-0.9-3-2.7-3c-1.9,0-3.1,1.6-3.1,5.9c0,4.3,1.2,5.9,3.1,5.9
				c1.8,0,2.8-1.6,2.8-4.8v-0.3H762.5z"/>
			<path id="XMLID_25_" class="st3" d="M769.3,187.8h6.7v1h-5.5v4.9h5.1v1h-5.1v5.5h5.6v1h-6.8V187.8z"/>
			<path id="XMLID_23_" class="st3" d="M778.3,187.8h1.6l5.1,11.7h0v-11.7h1.2v13.4h-1.6l-5.1-11.7h0v11.7h-1.2V187.8z"/>
			<path id="XMLID_21_" class="st3" d="M789,187.8h1.2v13.4H789V187.8z"/>
			<path id="XMLID_19_" class="st3" d="M793,187.8h6.7v1h-5.5v4.9h5.1v1h-5.1v5.5h5.6v1H793V187.8z"/>
			<path id="XMLID_16_" class="st3" d="M801.9,187.8h4c2.2,0,3.5,1.3,3.5,3.4c0,1.6-0.6,3.1-2.4,3.4v0c1.7,0.2,2.2,1.1,2.3,3.2
				l0,1.5c0,0.7,0.1,1.5,0.6,2h-1.4c-0.3-0.5-0.3-1.2-0.4-1.9l0-1.1c-0.1-2.4-0.5-3.1-2.7-3.1h-2.3v6.1h-1.2V187.8z M803.1,194.1
				h2.1c1.9,0,3-0.9,3-2.6c0-1.6-0.7-2.6-2.9-2.6h-2.2V194.1z"/>
			<path id="XMLID_13_" class="st3" d="M814.5,184.5l-1.8,2.7h-0.9l1.4-2.7H814.5z M811.9,187.8h1.2v13.4h-1.2V187.8z"/>
			<path id="XMLID_10_" class="st3" d="M818.8,187.8h1.5l4,13.4H823l-1.1-3.9h-4.7l-1.1,3.9h-1.3L818.8,187.8z M821.6,196.3
				l-2.1-7.6h0l-2.1,7.6H821.6z"/>
		</g>
		<g id="XMLID_2_">
			<g id="XMLID_6_">
				<g id="XMLID_7_">
					<defs>
						<path id="XMLID_8_" d="M761.2,147c0,17,13.8,30.9,30.9,30.9c17,0,30.9-13.8,30.9-30.9c0-17-13.8-30.9-30.9-30.9
							C775,116.1,761.2,129.9,761.2,147"/>
					</defs>
					<clipPath id="XMLID_83_">
						<use xlink:href="#XMLID_8_"  style="overflow:visible;"/>
					</clipPath>
					<g class="st5">
						<path class="st3" d="M781.9,141.7c0,0-6.6-5.9-6.4-3.3l0,1.4C775.5,139.8,781.3,142.1,781.9,141.7z"/>
						<path class="st3" d="M826.2,143.4L826.2,143.4c0-0.2,0-0.4-0.1-0.7c-1.8-12.8-10.3-22.6-17.6-25.9c0,0-6.6-4.2-16.9-4.2
							c-10.3,0-18.3,5.6-18.3,5.6v3.1l1.5-0.9l3.4-2.6l8.7-2.4l4.4-0.7l10.7,1.7c0,0,8.3,3.8,3.6,2.2c-5.7-2-7.4,2-7.4,2
							c-0.3-0.6-3.2-1.6-5.3-0.7c-3,1.4-3.3,4.3-2.1,7c-3.9-1.2-9.3,3.2-13.6,4.3c-1,0.2-1.9,0.4-2.6,0.5c0.2,0.2,0.4,0.3,0.6,0.5
							c1.3,1.1,9.5-2.5,9.5-2.5s2.3-1.2,5-1.4c3.8-0.3,2,4.3,2,4.3c-1.1-3.2-5.2-1.4-5.2-1.4l-10.6,3.7c0,0,11.2,7.4,12,8
							c0.9,0.6,1.8,1.6,1.8,2.6c0,1,0.7,1.9,1.3,2c0.7,0.1,0.7,0.5,0.7,0.5s-2.3,8.7,5.3,13.3c5.6,3.4,9-3.6,9-4.2
							c5.8,4.5,3.1,10.3,2.6,11.3v0c0,0-1,3-4.2,2.7c-3.2-0.3,2-1.3-0.3-4.8c0,0-0.8-1.7-1.8-0.1c-0.9,1.7-2.6,3.5-4.6,3.8
							c-1.7,0.3-3.7-0.3-5.6-2.2c-1.9-1.9-5-6.4-2.9-12c0,0-0.6-0.4-1.2,0.1c-0.5,0.5-3.6,1.5-4.4-2.7c0,0,0.6-0.2,0.7,0
							c0.2,0.3,3,1.1,4.1-1.5c1.2-3-1.2-4.3-1.4-4.4c-0.2-0.1-2-0.9-2.1-3.4c-0.1-1.3-5.3-1.5-5.4-1.5c-0.1,0.1,1.3,0.7,1.2,1
							c-0.1,0.3-1.2-0.1-1.4,0.2c-0.1,0.4-1,1.1-1.3,0.9c-0.3-0.2-0.3-2.3-1-2.6c-0.8-0.3-0.8-0.5-1.6-0.2c0,0-1.1,6-1.6,7.5
							c-0.6,1.4-0.5,2.2,1.7,1.9c0,0,0.5,0,0.7,0.5c0.2,0.4-0.2,1.4,0.6,1.6c0.9,0.3,0.8,3.1,0.8,3.2c0,0.1,0.7,2.2,2.6,2.2
							c2,0,3.9-0.6,4.2-0.4c0.3,0.2-0.4,7.1-3.5,9.9c-3,2.9-6,3.5-7.6,3.6v4c0,0,8.1,5.5,18.5,5.5c10.4,0,16.7-4.2,16.7-4.2v0
							C829.2,165.4,826.2,143.4,826.2,143.4z M784.8,133.4c5.8-1.3,4.1,4,4.1,4C783.7,138.1,784.8,133.4,784.8,133.4z M787.4,139.9
							c0.6-1.5,2.8-0.9,2.8-0.9c-0.2-2.4,1.3-2.7,1.3-2.7c1.6-0.7,3.6,3.6,1.1,5.3C790,143.2,786.7,141.3,787.4,139.9z M791.1,143.9
							c0.8-1.4,2.9-0.7,2.9-0.7c-0.1-2.4,1.4-2.6,1.4-2.6c1.6-0.6,3.4,3.9,0.7,5.4C793.5,147.3,790.4,145.3,791.1,143.9z M793.9,148
							c1-1.2,3-0.1,3-0.1c0.5-2.4,2-2.2,2-2.2c1.7-0.2,2.4,4.5-0.5,5.4C795.5,151.9,792.9,149.2,793.9,148z M807.1,149.1
							c-0.7,0.5-1.6,1.2-2.3,1.8c-1.6,1.4-1.4,2-1.6,2.6c-0.1,0.6,0.2,2.3-2.7,2.8c-2.9,0.5-3.8-3-3.5-3.5c0.3-0.5,3.2,0.1,3.2,0.1
							v-0.8c0.8-0.5,0.4-1.1,0.4-1.1c6.8-3.2,8.4-9.1,7.5-13.5c-0.5-2.4-1.5-4.2-2.8-5.4c-1-1-2.4-1.9-3-2.2
							c-2.3-1.4-7.1-0.9-7.1-0.9c-1.6-1-2.7-2.3-3.2-3.7c-0.5-1.3,0.3-2.8,1.5-3.5c1.2-0.6,2.4-0.5,3.2-0.1c1.3,0.8,1.7,2.5,1.7,2.5
							s0.2-2.8,3.2-2.3c3.6,0.5,3.1,3.9,3.1,3.9c0.7-1.2,2.3-1.3,3.2-1.2c0,0,0,0,0,0c0.7,0.2,0.9,0.4,0.9,0.4s2.5,2,0.7,4.9
							c-1.4,2.3-2.3,1.3-0.9,3.7C809,134.8,812.8,142.2,807.1,149.1z"/>
						<path class="st3" d="M796.1,123.3c-1.3-1.5-2.7,0-2.7,0s-0.8,0.7,0,2.5c0.8,1.8,2.9,1.6,2.9,1.6
							C794.6,125.5,797.5,124.8,796.1,123.3z"/>
						<path class="st3" d="M808.3,127.9c0.2-1.9-2-1.7-2-1.7s-1.1,0-1.7,1.8c-0.6,1.9,1.1,3.2,1.1,3.2
							C805.7,128.6,808.1,129.9,808.3,127.9z"/>
						<path class="st3" d="M800.3,123.4c0,0-1,0.3-1,2.3c0,1.9,2.1,2.6,2.1,2.6c-1-2.4,2.1-2.1,1.3-3.9
							C802.1,122.5,800.3,123.4,800.3,123.4z"/>
					</g>
				</g>
			</g>
			<path id="XMLID_3_" class="st3" d="M792,118c16,0,29,13,29,29c0,16-13,29-29,29c-16,0-29-13-29-29C763,131,776,118,792,118
				 M792,116.1c-17,0-30.9,13.8-30.9,30.9c0,17,13.8,30.9,30.9,30.9c17,0,30.9-13.8,30.9-30.9C822.9,129.9,809.1,116.1,792,116.1"/>
		</g>
	</g>
	<circle class="st6" cx="67" cy="46" r="1.5"/>
	<circle class="st6" cx="67" cy="46" r="1.5"/>
	<circle class="st6" cx="90" cy="55" r="1.5"/>
	<circle class="st6" cx="18" cy="209" r="1.5"/>
	<circle class="st3" cx="79" cy="55" r="1"/>
	<circle class="st3" cx="79" cy="61" r="1"/>
	<circle class="st3" cx="5.9" cy="201" r="1"/>
	<circle class="st3" cx="12.1" cy="201" r="1"/>
	<circle class="st3" cx="18.3" cy="201" r="1"/>
	<circle class="st3" cx="24.6" cy="201" r="1"/>
	<circle class="st3" cx="30.8" cy="201" r="1"/>
	<circle class="st3" cx="37" cy="201" r="1"/>
	<circle class="st3" cx="5.9" cy="209" r="1"/>
	<circle class="st3" cx="12.1" cy="209" r="1"/>
	<circle class="st3" cx="24.6" cy="209" r="1"/>
	<circle class="st3" cx="30.8" cy="209" r="1"/>
	<circle class="st3" cx="37" cy="209" r="1"/>
	<circle class="st3" cx="43" cy="209" r="1"/>
	<circle class="st6" cx="405" cy="260" r="1.5"/>
	<circle class="st6" cx="430" cy="252" r="1.5"/>
	<circle class="st6" cx="488" cy="254" r="1.5"/>
	<circle class="st6" cx="744" cy="279.8" r="1.5"/>
	<circle class="st3" cx="380.4" cy="252" r="1"/>
	<circle class="st3" cx="386.7" cy="252" r="1"/>
	<circle class="st3" cx="392.9" cy="252" r="1"/>
	<circle class="st3" cx="399.1" cy="252" r="1"/>
	<circle class="st3" cx="405.3" cy="252" r="1"/>
	<circle class="st3" cx="411.6" cy="252" r="1"/>
	<circle class="st3" cx="418" cy="252" r="1"/>
	<circle class="st3" cx="424" cy="252" r="1"/>
	<circle class="st6" cx="811" cy="298" r="1.5"/>
	<circle class="st6" cx="787" cy="289" r="1.5"/>
	<circle class="st3" cx="786.4" cy="280" r="1"/>
	<circle class="st3" cx="792.7" cy="280" r="1"/>
	<circle class="st3" cx="798.9" cy="280" r="1"/>
	<circle class="st3" cx="805.1" cy="280" r="1"/>
	<circle class="st3" cx="816" cy="280" r="1"/>
	<circle class="st3" cx="792.7" cy="289" r="1"/>
	<circle class="st3" cx="798.9" cy="289" r="1"/>
	<circle class="st3" cx="805.1" cy="289" r="1"/>
	<circle class="st3" cx="786.4" cy="298" r="1"/>
	<circle class="st3" cx="792.7" cy="298" r="1"/>
	<circle class="st3" cx="841.4" cy="298" r="1"/>
	<circle class="st3" cx="847.7" cy="298" r="1"/>
	<circle class="st3" cx="798.9" cy="298" r="1"/>
	<circle class="st3" cx="805.1" cy="298" r="1"/>
	<circle class="st3" cx="786.4" cy="307" r="1"/>
	<circle class="st3" cx="792.7" cy="307" r="1"/>
	<circle class="st3" cx="798.9" cy="307" r="1"/>
	<circle class="st3" cx="805.1" cy="307" r="1"/>
	<circle class="st3" cx="846" cy="280" r="1"/>
	<circle class="st3" cx="835" cy="280" r="1"/>
	<circle class="st3" cx="368" cy="260" r="1"/>
	<circle class="st3" cx="374.2" cy="260" r="1"/>
	<circle class="st3" cx="380.4" cy="260" r="1"/>
	<circle class="st3" cx="386.7" cy="260" r="1"/>
	<circle class="st3" cx="392.9" cy="260" r="1"/>
	<circle class="st3" cx="399.1" cy="260" r="1"/>
	<circle class="st3" cx="411.6" cy="260" r="1"/>
	<line class="st6" x1="44" y1="215.5" x2="13" y2="215.5"/>
	<line class="st6" x1="778.5" y1="279.8" x2="749" y2="279.8"/>
</g>
</svg>
