<?xml version="1.0" encoding="utf-8"?>
<!-- Generator: Adobe Illustrator 22.0.1, SVG Export Plug-In . SVG Version: 6.00 Build 0)  -->
<svg version="1.1" id="Capa_1" xmlns="http://www.w3.org/2000/svg" xmlns:xlink="http://www.w3.org/1999/xlink" x="0px" y="0px"
	 viewBox="0 0 300 86" style="enable-background:new 0 0 300 86;" xml:space="preserve">
<style type="text/css">
	.st0{fill:#0084D2;}
	.st1{fill:#006FC6;}
	.st2{fill:#009CDE;}
	.st3{fill:#FFFFFF;}
	.st4{fill:#1F93D7;}
	.st5{clip-path:url(#XMLID_164_);}
	.st6{fill:none;stroke:#FFFFFF;stroke-width:0.5;stroke-miterlimit:10;}
	.st7{clip-path:url(#XMLID_165_);}
	.st8{clip-path:url(#XMLID_166_);}
</style>
<g id="XMLID_82_">
	<g id="XMLID_149_">
		<path id="XMLID_161_" class="st3" d="M117.7,28.1h-4.6v-3.2h4.6v-4c0-4.6,1-8.1,7.4-8.1c1.1,0,1.7,0.1,2.4,0.2v3.2
			c-0.6-0.1-1.1-0.2-1.8-0.2c-2.8,0-4.1,1.1-4.1,4.9v4h6v3.2h-6v30.5h-3.8V28.1z"/>
		<path id="XMLID_158_" class="st3" d="M133.1,13.3h3.8v6.5h-3.8V13.3z M133.1,24.9h3.8v33.7h-3.8V24.9z"/>
		<path id="XMLID_156_" class="st3" d="M145.8,24.9h3.8v23.7c0,5.5,1.8,7.5,5.8,7.5c4.3,0,7.4-3.4,7.4-8.6V24.9h3.8v33.7h-3.4v-4.7
			H163c-1.9,3.7-5.2,5.5-8.6,5.5c-5.1,0-8.6-2.7-8.6-9V24.9z"/>
		<path id="XMLID_153_" class="st3" d="M174.8,13.3h3.8V30h0.1c0.8-3.6,3.7-5.8,7.9-5.8c7.4,0,10.8,6,10.8,17.6
			c0,11.7-3.4,17.6-10.8,17.6c-4,0-7.2-2.5-8.2-6.3h-0.1v5.6h-3.4V13.3z M186,56.1c3.8,0,7.4-2,7.4-14.5c0-12.4-3.6-14.4-7.4-14.4
			c-3.9,0-7.4,2-7.4,14.4C178.6,54.2,182.1,56.1,186,56.1z"/>
		<path id="XMLID_150_" class="st3" d="M203.9,34.9c0-6.9,3.3-10.8,10.4-10.8c7,0,9.5,3.6,9.5,8.9V53c0,1.9,0.6,2.8,2,2.8h1.1v2.8
			c-0.7,0.3-1.3,0.4-1.8,0.4c-3,0-4.9-0.7-4.9-4.2v-1.1h-0.1c-1.5,4.4-4.9,5.7-8.7,5.7c-5.9,0-8.6-3.7-8.6-9.5c0-4.4,2-8,6.8-9.3
			l7.2-2c2.7-0.8,3.2-1.4,3.2-5.3c0-4.3-2.4-5.8-5.8-5.8c-4.5,0-6.5,2.7-6.5,7.6H203.9z M220,39.5h-0.1c-0.4,1.1-2.5,1.8-4.1,2.2
			l-3.2,0.8c-3.8,1-5.8,3-5.8,7c0,3.9,2,6.6,5.3,6.6c4.6,0,7.8-3.5,7.8-9.5V39.5z"/>
	</g>
	<g id="XMLID_139_">
		<path id="XMLID_147_" class="st3" d="M41.6,45.9c0,9-5.3,13.4-14.2,13.4c-9,0-14.2-4.3-14.2-13.4V25.2h7.3v20.7
			c0,3.6,0.9,7.2,6.9,7.2c5.2,0,6.9-2.3,6.9-7.2V25.2h7.3V45.9z"/>
		<path id="XMLID_143_" class="st3" d="M47.9,25.2h15.7c6.3,0,10.6,2.1,10.6,8.3c0,3.3-1.6,5.6-4.5,7c4.1,1.2,6.1,4.3,6.1,8.4
			c0,6.8-5.7,9.7-11.8,9.7H47.9V25.2z M55.2,38.7h7.4c2.6,0,4.5-1.2,4.5-4c0-3.2-2.4-3.8-5-3.8h-6.9V38.7z M55.2,52.8H63
			c2.9,0,5.4-0.9,5.4-4.4c0-3.4-2.1-4.8-5.3-4.8h-8V52.8z"/>
		<path id="XMLID_140_" class="st3" d="M89.8,25.2h7.5l12.5,33.3h-7.6l-2.5-7.4H87.2l-2.6,7.4h-7.4L89.8,25.2z M89.1,45.6h8.6
			l-4.2-12.2h-0.1L89.1,45.6z"/>
	</g>
	<path id="XMLID_138_" class="st3" d="M9.1,54.5c0,2.5-2,4.5-4.5,4.5C2,59,0,57,0,54.5c0-2.5,2-4.5,4.5-4.5
		C7.1,49.9,9.1,51.9,9.1,54.5z"/>
	<g id="XMLID_90_">
		<path id="XMLID_136_" class="st3" d="M116.8,72.3h6.6v1H118v4.9h5.1v1H118v6.5h-1.2V72.3z"/>
		<path id="XMLID_133_" class="st3" d="M127.5,72.3h1.5l4,13.4h-1.3l-1.1-3.9h-4.7l-1.1,3.9h-1.3L127.5,72.3z M130.3,80.7l-2.1-7.5
			h0l-2.1,7.5H130.3z"/>
		<path id="XMLID_131_" class="st3" d="M142.7,81.1c-0.2,3.1-1.6,4.8-4,4.8c-2.7,0-4.3-2.1-4.3-6.9s1.5-6.9,4.3-6.9
			c2.7,0,3.8,1.9,3.8,4.1h-1.2c0-1.8-0.9-3.1-2.6-3.1c-1.9,0-3.1,1.6-3.1,5.9c0,4.3,1.2,5.9,3.1,5.9c1.7,0,2.6-1.4,2.8-3.7H142.7z"
			/>
		<path id="XMLID_129_" class="st3" d="M144.7,72.3h1.2v9.6c0,2,0.9,3,2.6,3c1.8,0,2.6-1,2.6-3v-9.6h1.2v9.6c0,2.8-1.4,4-3.8,4
			c-2.5,0-3.8-1.2-3.8-4V72.3z"/>
		<path id="XMLID_127_" class="st3" d="M154.8,72.3h1.2v12.4h5.6v1h-6.8V72.3z"/>
		<path id="XMLID_125_" class="st3" d="M164.5,73.3H161v-1h8.1v1h-3.4v12.4h-1.2V73.3z"/>
		<path id="XMLID_122_" class="st3" d="M172.7,72.3h1.5l4,13.4h-1.3l-1.1-3.9h-4.7l-1.1,3.9h-1.3L172.7,72.3z M175.5,80.7l-2.1-7.5
			h0l-2.1,7.5H175.5z"/>
		<path id="XMLID_119_" class="st3" d="M179.7,72.3h3.2c3.9,0,4.9,2.3,4.9,6.7c0,4.4-1,6.7-4.9,6.7h-3.2V72.3z M180.9,84.6h2
			c2.6,0,3.7-1.3,3.7-5.7c0-4.4-1.1-5.7-3.7-5.7h-2V84.6z"/>
		<path id="XMLID_116_" class="st3" d="M195.4,72.3h3.2c3.9,0,4.9,2.3,4.9,6.7c0,4.4-1,6.7-4.9,6.7h-3.2V72.3z M196.6,84.6h2
			c2.6,0,3.7-1.3,3.7-5.7c0-4.4-1.1-5.7-3.7-5.7h-2V84.6z"/>
		<path id="XMLID_114_" class="st3" d="M206.1,72.3h6.6v1h-5.4v4.9h5.1v1h-5.1v5.5h5.6v1h-6.8V72.3z"/>
		<path id="XMLID_112_" class="st3" d="M220.1,72.3h1.2v13.4h-1.2V72.3z"/>
		<path id="XMLID_110_" class="st3" d="M224,72.3h1.6l5.1,11.7h0V72.3h1.2v13.4h-1.6L225.3,74h0v11.7H224V72.3z"/>
		<path id="XMLID_108_" class="st3" d="M238.4,79.8v-1h4.3v6.8h-0.9v-2.2h0c-0.4,1.5-1.6,2.4-2.9,2.4c-2.7,0-4.3-2.1-4.3-6.9
			s1.5-6.9,4.3-6.9c2.6,0,3.7,1.7,3.8,4h-1.2c0-1.6-0.9-3-2.6-3c-1.9,0-3.1,1.6-3.1,5.9c0,4.3,1.2,5.9,3.1,5.9
			c1.8,0,2.8-1.6,2.8-4.7v-0.3H238.4z"/>
		<path id="XMLID_106_" class="st3" d="M245.3,72.3h6.6v1h-5.4v4.9h5.1v1h-5.1v5.5h5.6v1h-6.8V72.3z"/>
		<path id="XMLID_104_" class="st3" d="M254.2,72.3h1.6l5.1,11.7h0V72.3h1.2v13.4h-1.6L255.4,74h0v11.7h-1.2V72.3z"/>
		<path id="XMLID_102_" class="st3" d="M264.9,72.3h1.2v13.4h-1.2V72.3z"/>
		<path id="XMLID_100_" class="st3" d="M268.8,72.3h6.6v1H270v4.9h5.1v1H270v5.5h5.6v1h-6.8V72.3z"/>
		<path id="XMLID_97_" class="st3" d="M277.7,72.3h4c2.2,0,3.5,1.3,3.5,3.4c0,1.6-0.6,3.1-2.4,3.4v0c1.7,0.2,2.2,1.1,2.3,3.2l0,1.5
			c0,0.7,0.1,1.4,0.6,2h-1.4c-0.3-0.5-0.3-1.2-0.4-1.9l0-1.1c-0.1-2.4-0.5-3.1-2.7-3.1h-2.3v6.1h-1.2V72.3z M278.9,78.5h2.1
			c1.9,0,3-0.9,3-2.6c0-1.6-0.7-2.6-2.9-2.6h-2.2V78.5z"/>
		<path id="XMLID_94_" class="st3" d="M290.2,69l-1.8,2.6h-0.9l1.4-2.6H290.2z M287.7,72.3h1.2v13.4h-1.2V72.3z"/>
		<path id="XMLID_91_" class="st3" d="M294.5,72.3h1.5l4,13.4h-1.3l-1.1-3.9H293l-1.1,3.9h-1.3L294.5,72.3z M297.4,80.7l-2.1-7.5h0
			l-2.1,7.5H297.4z"/>
	</g>
	<g id="XMLID_83_">
		<g id="XMLID_87_">
			<g id="XMLID_88_">
				<defs>
					<path id="XMLID_89_" d="M237.2,31.6c0,17,13.8,30.7,30.7,30.7c17,0,30.7-13.8,30.7-30.7c0-17-13.8-30.7-30.7-30.7
						C250.9,0.9,237.2,14.6,237.2,31.6"/>
				</defs>
				<clipPath id="XMLID_164_">
					<use xlink:href="#XMLID_89_"  style="overflow:visible;"/>
				</clipPath>
				<g class="st5">
					<path class="st3" d="M257.8,26.3c0,0-6.6-5.9-6.4-3.3l0,1.4C251.4,24.4,257.2,26.7,257.8,26.3z"/>
					<path class="st3" d="M301.9,28L301.9,28c0-0.2,0-0.4-0.1-0.7c-1.8-12.7-10.3-22.5-17.5-25.8c0,0-6.6-4.1-16.8-4.1
						c-10.2,0-18.2,5.6-18.2,5.6v3.1l1.5-0.9l3.4-2.6l8.6-2.4l4.4-0.7l10.7,1.6c0,0,8.2,3.8,3.5,2.2c-5.7-2-7.3,2-7.3,2
						c-0.3-0.6-3.2-1.6-5.3-0.7c-3,1.3-3.3,4.3-2.1,7c-3.9-1.2-9.2,3.2-13.6,4.3c-1,0.2-1.9,0.4-2.6,0.5c0.2,0.2,0.4,0.3,0.6,0.5
						c1.3,1.1,9.4-2.5,9.4-2.5s2.3-1.2,5-1.4c3.8-0.3,2,4.3,2,4.3c-1.1-3.2-5.2-1.4-5.2-1.4l-10.6,3.7c0,0,11.1,7.3,12,8
						c0.9,0.6,1.8,1.6,1.8,2.6c0,1,0.7,1.9,1.3,1.9c0.6,0.1,0.6,0.5,0.6,0.5s-2.3,8.7,5.3,13.2c5.6,3.4,8.9-3.6,9-4.2
						c5.7,4.5,3.1,10.3,2.6,11.2v0c0,0-1,3-4.2,2.7c-3.2-0.3,2-1.3-0.3-4.8c0,0-0.8-1.7-1.8-0.1c-0.9,1.7-2.6,3.4-4.6,3.8
						c-1.7,0.3-3.7-0.3-5.6-2.2c-1.9-1.9-5-6.4-2.9-12c0,0-0.6-0.4-1.2,0.1c-0.5,0.5-3.6,1.5-4.4-2.7c0,0,0.6-0.2,0.7,0
						c0.2,0.3,3,1,4.1-1.5c1.2-2.9-1.2-4.3-1.4-4.4c-0.2-0.1-2-0.9-2.1-3.3c-0.1-1.3-5.3-1.5-5.4-1.5c-0.1,0.1,1.3,0.7,1.2,1
						c-0.1,0.3-1.2-0.1-1.4,0.2c-0.1,0.4-1,1.1-1.3,0.9c-0.3-0.2-0.3-2.3-1-2.6c-0.8-0.3-0.8-0.5-1.6-0.2c0,0-1.1,6-1.6,7.4
						c-0.6,1.4-0.5,2.2,1.7,1.9c0,0,0.5,0,0.7,0.5c0.2,0.4-0.2,1.4,0.6,1.6c0.9,0.3,0.8,3.1,0.8,3.2c0,0.1,0.7,2.2,2.6,2.2
						c2,0,3.9-0.6,4.2-0.4c0.3,0.1-0.4,7-3.4,9.9c-3,2.9-6,3.5-7.6,3.6v4c0,0,8.1,5.5,18.4,5.5c10.3,0,16.6-4.2,16.6-4.2v0
						C304.9,49.9,301.9,28,301.9,28z M260.7,18.1c5.8-1.3,4.1,4,4.1,4C259.5,22.7,260.7,18.1,260.7,18.1z M263.3,24.5
						c0.6-1.5,2.8-0.9,2.8-0.9c-0.2-2.4,1.3-2.7,1.3-2.7c1.6-0.7,3.6,3.6,1,5.3C265.8,27.8,262.6,26,263.3,24.5z M267,28.5
						c0.8-1.4,2.9-0.7,2.9-0.7c-0.1-2.4,1.4-2.6,1.4-2.6c1.6-0.6,3.4,3.9,0.7,5.3C269.4,31.9,266.2,29.9,267,28.5z M269.8,32.6
						c1-1.2,3-0.1,3-0.1c0.5-2.4,2-2.2,2-2.2c1.7-0.2,2.4,4.5-0.5,5.3C271.3,36.5,268.7,33.8,269.8,32.6z M282.9,33.7
						c-0.7,0.5-1.5,1.2-2.3,1.8c-1.6,1.4-1.4,2-1.6,2.6c-0.1,0.6,0.2,2.3-2.7,2.8c-2.9,0.5-3.8-2.9-3.5-3.5c0.3-0.5,3.2,0.1,3.2,0.1
						v-0.8c0.8-0.5,0.4-1.1,0.4-1.1c6.8-3.2,8.4-9.1,7.4-13.5c-0.5-2.4-1.5-4.2-2.8-5.4c-1-1-2.4-1.8-3-2.2
						c-2.3-1.4-7.1-0.9-7.1-0.9c-1.6-1-2.7-2.3-3.2-3.7c-0.5-1.3,0.3-2.8,1.5-3.5c1.1-0.6,2.4-0.5,3.1-0.1c1.3,0.8,1.6,2.5,1.6,2.5
						s0.2-2.8,3.2-2.3c3.6,0.5,3.1,3.9,3.1,3.9c0.7-1.2,2.3-1.3,3.2-1.1c0,0,0,0,0,0c0.7,0.2,0.9,0.4,0.9,0.4s2.5,2,0.7,4.9
						c-1.4,2.3-2.3,1.3-0.9,3.7C284.8,19.5,288.6,26.8,282.9,33.7z"/>
					<path class="st3" d="M272,8c-1.3-1.5-2.7,0-2.7,0s-0.8,0.7,0,2.5c0.8,1.8,2.9,1.6,2.9,1.6C270.4,10.2,273.3,9.5,272,8z"/>
					<path class="st3" d="M284.1,12.6c0.2-1.9-2-1.7-2-1.7s-1.1,0-1.7,1.8c-0.6,1.9,1.1,3.1,1.1,3.1
						C281.5,13.3,283.9,14.6,284.1,12.6z"/>
					<path class="st3" d="M276.1,8.1c0,0-1,0.3-1,2.3c0,1.9,2.1,2.6,2.1,2.6c-1-2.4,2.1-2.1,1.3-3.9C277.9,7.3,276.1,8.1,276.1,8.1z
						"/>
				</g>
			</g>
		</g>
		<path id="XMLID_84_" class="st3" d="M267.9,2.7c15.9,0,28.9,13,28.9,28.9c0,15.9-13,28.9-28.9,28.9c-15.9,0-28.9-13-28.9-28.9
			C239,15.7,252,2.7,267.9,2.7 M267.9,0.9c-17,0-30.7,13.8-30.7,30.7c0,17,13.8,30.7,30.7,30.7c17,0,30.7-13.8,30.7-30.7
			C298.6,14.6,284.9,0.9,267.9,0.9"/>
	</g>
</g>
</svg>
