<?xml version="1.0" standalone="no"?>
<!DOCTYPE svg PUBLIC "-//W3C//DTD SVG 20010904//EN"
 "http://www.w3.org/TR/2001/REC-SVG-20010904/DTD/svg10.dtd">
<svg version="1.0" xmlns="http://www.w3.org/2000/svg"
 width="700.000000pt" height="700.000000pt" viewBox="0 0 700.000000 700.000000"
 preserveAspectRatio="xMidYMid meet">
<metadata>
Created by potrace 1.11, written by Peter Selinger 2001-2013
</metadata>
<g transform="translate(0.000000,700.000000) scale(0.100000,-0.100000)"
fill="#000000" stroke="none">
<path d="M3278 6996 c-1 -2 -42 -6 -89 -10 -47 -4 -95 -8 -105 -10 -10 -2 -46
-7 -79 -11 -32 -4 -68 -9 -80 -11 -11 -2 -45 -8 -75 -14 -88 -16 -95 -18 -187
-40 -241 -60 -479 -148 -708 -261 -160 -79 -207 -105 -252 -136 -17 -13 -34
-23 -38 -23 -11 0 -222 -146 -315 -219 -713 -555 -1190 -1377 -1316 -2271 -35
-249 -40 -716 -9 -901 2 -13 6 -46 9 -74 9 -78 22 -152 51 -285 21 -96 91
-339 114 -395 5 -11 30 -75 55 -142 54 -140 181 -394 249 -501 26 -40 47 -75
47 -78 0 -2 5 -10 10 -17 6 -7 40 -54 76 -106 178 -256 424 -520 663 -711 24
-19 58 -47 75 -61 56 -46 204 -149 214 -149 6 0 12 -4 14 -8 5 -12 209 -131
323 -189 273 -139 585 -246 895 -307 122 -24 163 -30 265 -42 28 -3 61 -8 75
-11 46 -9 554 -12 635 -3 160 16 202 22 335 46 1298 235 2365 1199 2734 2470
35 123 90 376 101 469 4 28 8 57 10 65 22 87 27 666 7 825 -72 559 -230 1017
-506 1462 -499 807 -1328 1388 -2251 1578 -143 30 -176 35 -300 49 -38 4 -83
10 -100 12 -33 6 -541 14 -547 10z m453 -210 c57 -4 115 -9 129 -11 14 -1 50
-6 80 -10 112 -14 393 -70 408 -81 2 -1 -20 -26 -48 -55 -28 -29 -61 -70 -72
-91 -21 -38 -22 -38 -42 -19 -83 75 -337 119 -495 86 -194 -42 -357 -202 -391
-384 -21 -114 -7 -252 39 -381 11 -30 19 -56 18 -56 -1 -1 -31 3 -67 10 -86
16 -238 5 -320 -23 -14 -5 -52 -17 -85 -27 -76 -22 -239 -92 -425 -181 -281
-136 -346 -166 -459 -210 -111 -43 -237 -77 -391 -103 -82 -14 -104 -25 -74
-36 10 -4 26 -16 35 -25 42 -48 146 -47 344 3 78 19 331 100 370 118 11 5 90
37 175 71 85 34 184 75 220 91 100 46 185 76 289 103 126 33 177 40 291 40 78
0 102 -4 136 -22 71 -38 106 -113 106 -229 0 -41 -29 -200 -39 -217 -3 -5 -17
11 -31 35 -71 122 -179 175 -332 163 -94 -7 -124 -15 -280 -70 -69 -24 -177
-61 -240 -83 -767 -267 -889 -310 -907 -321 -10 -5 39 -42 159 -121 95 -63
251 -166 346 -229 209 -140 209 -140 261 -170 22 -14 41 -28 41 -33 0 -4 4 -8
9 -8 11 0 397 -257 528 -351 134 -97 200 -191 209 -300 9 -107 69 -200 136
-213 19 -3 44 -13 57 -22 20 -15 22 -22 17 -66 -4 -28 -8 -53 -10 -57 -8 -12
-19 -187 -18 -286 0 -216 55 -446 148 -628 135 -262 448 -529 696 -593 87 -23
198 -21 283 5 189 56 377 234 497 469 l48 92 93 -92 c110 -109 140 -147 196
-249 164 -300 155 -645 -26 -991 -87 -167 -242 -259 -423 -253 -89 4 -150 21
-150 43 0 10 23 45 50 77 117 139 133 235 61 380 -67 135 -128 168 -191 103
-17 -18 -54 -69 -82 -113 -112 -176 -281 -310 -448 -355 -66 -18 -171 -20
-244 -5 -229 48 -431 208 -624 493 -24 34 -40 62 -38 62 3 0 -5 16 -19 36 -56
82 -133 323 -150 464 -7 64 -7 205 0 270 7 55 54 248 67 273 10 19 0 26 -48
31 -29 4 -75 -14 -104 -40 -9 -7 -40 -20 -70 -27 -153 -40 -285 30 -359 188
-27 57 -56 153 -48 161 12 13 58 8 91 -8 63 -32 169 -35 252 -8 211 70 307
365 181 555 -37 56 -72 87 -152 139 -92 60 -137 104 -174 173 -24 43 -34 78
-59 203 -15 76 -186 132 -472 155 -41 4 -90 8 -107 10 -18 2 -33 2 -33 0 0 -1
29 -21 64 -44 98 -64 98 -81 -3 -81 -70 0 -80 -4 -97 -35 -16 -29 -77 -75
-106 -80 -21 -4 -28 0 -36 23 -13 33 -20 58 -26 97 -22 124 -43 160 -112 191
-94 42 -150 29 -158 -36 -3 -19 -12 -71 -21 -115 -9 -44 -19 -91 -21 -105 -49
-259 -109 -515 -144 -612 -51 -145 -14 -192 147 -187 115 4 143 -18 148 -115
1 -28 3 -59 4 -68 0 -9 21 -31 46 -48 25 -17 51 -43 59 -58 21 -40 35 -126 40
-233 4 -110 26 -164 97 -238 64 -67 109 -84 219 -87 52 -1 120 2 150 7 30 5
71 11 91 13 20 3 73 10 117 17 111 17 112 17 107 -80 -11 -204 -79 -487 -170
-701 -92 -220 -240 -389 -468 -538 -82 -53 -214 -120 -280 -141 -37 -13 -38
-13 -130 56 -155 115 -266 211 -402 348 -357 359 -619 778 -784 1257 -36 106
-104 356 -116 432 -3 17 -10 56 -15 86 -5 30 -12 78 -16 105 -3 28 -7 61 -9
75 -23 164 -23 598 -1 717 2 10 7 43 10 74 4 31 9 67 11 80 3 13 7 41 10 64
12 84 85 365 124 477 142 409 335 748 615 1083 67 80 308 320 371 370 28 22
52 43 55 46 16 19 202 153 295 214 278 180 554 307 885 404 99 29 303 75 380
85 19 2 53 7 75 10 22 3 56 8 75 11 19 2 85 8 145 11 61 4 111 7 112 8 5 4
251 -2 344 -8z m260 -399 c76 -38 150 -137 180 -242 l12 -40 7 30 c34 150 147
238 297 231 189 -10 316 -83 378 -219 26 -56 44 -151 39 -198 l-4 -29 35 39
c52 57 122 84 228 87 151 5 238 -47 311 -185 63 -121 64 -245 3 -371 -27 -57
-113 -173 -166 -225 -58 -55 -56 -83 15 -210 83 -151 166 -354 189 -465 91
-432 47 -755 -148 -1100 -96 -171 -150 -228 -377 -402 -148 -113 -209 -208
-225 -354 -15 -127 -49 -185 -141 -239 -59 -35 -175 -62 -247 -59 -150 7 -281
135 -317 310 -16 78 -8 102 36 110 42 8 195 -2 266 -17 27 -6 52 -8 55 -5 4 3
7 23 7 44 1 27 9 46 29 67 23 24 27 37 24 66 -5 35 -4 36 62 69 36 17 104 57
151 87 562 366 780 962 578 1583 -86 265 -230 444 -502 623 -77 52 -159 101
-181 110 -44 18 -145 47 -178 52 -12 1 -44 6 -72 10 -94 14 -349 20 -452 10
-38 -3 -49 1 -105 42 -132 97 -215 194 -277 323 -32 66 -36 84 -36 150 1 95
32 167 104 238 85 84 161 113 287 108 65 -2 92 -8 135 -29z m-985 -1347 c87
-33 146 -110 161 -211 8 -52 2 -154 -12 -219 l-7 -31 -106 2 c-252 4 -372 113
-374 340 0 103 5 117 50 125 115 22 220 19 288 -6z m561 -346 c79 -60 128
-176 128 -304 0 -71 -4 -94 -26 -141 -34 -73 -88 -125 -163 -159 -78 -35 -135
-47 -216 -44 -174 6 -335 116 -323 220 12 116 124 177 278 154 25 -4 45 -4 46
-1 0 3 2 33 3 66 5 108 52 189 131 227 50 23 95 18 142 -18z m426 -486 c57
-40 100 -117 122 -218 50 -239 -101 -413 -360 -414 -104 -1 -173 17 -255 66
-106 64 -142 159 -87 232 50 65 145 90 270 71 l47 -7 1 48 c1 67 4 78 34 139
49 100 150 137 228 83z m356 -574 c81 -48 125 -209 94 -347 -32 -144 -111
-222 -254 -251 -155 -31 -294 6 -415 111 -76 66 -104 163 -65 226 32 52 81 72
171 71 53 -1 90 -8 124 -23 51 -22 65 -18 66 19 0 30 50 120 83 153 56 54 143
72 196 41z"/>
<path d="M1640 4543 c-18 -13 -20 -25 -20 -118 l0 -104 106 -41 c59 -22 170
-61 248 -87 77 -25 150 -50 161 -54 11 -4 50 -15 86 -23 104 -25 147 -19 100
15 -10 8 -75 60 -143 116 -213 173 -410 298 -486 307 -17 2 -41 -3 -52 -11z"/>
<path d="M3777 6259 c-55 -13 -122 -64 -142 -110 -39 -85 7 -251 93 -337 46
-46 124 -78 207 -87 l57 -5 -26 30 c-25 31 -46 87 -46 126 0 12 15 52 34 90
19 38 40 82 45 97 29 76 -57 186 -155 200 -16 3 -46 1 -67 -4z"/>
<path d="M4457 6186 c-94 -35 -140 -131 -133 -276 6 -108 52 -182 151 -245 72
-45 86 -49 76 -22 -13 36 -13 114 -1 139 6 13 45 55 86 93 44 42 78 82 83 101
15 54 -35 166 -91 198 -38 23 -125 29 -171 12z"/>
<path d="M5054 5836 c-124 -76 -178 -272 -112 -401 14 -28 44 -70 66 -94 l39
-43 8 48 c4 27 13 61 21 76 17 33 76 73 136 90 23 7 61 31 84 53 33 32 43 50
48 87 18 125 -43 194 -182 204 -59 5 -72 2 -108 -20z"/>
</g>
</svg>
