<?xml version="1.0" encoding="utf-8"?>
<!-- Generator: Adobe Illustrator 22.0.1, SVG Export Plug-In . SVG Version: 6.00 Build 0)  -->
<svg version="1.1" id="Capa_1" xmlns="http://www.w3.org/2000/svg" xmlns:xlink="http://www.w3.org/1999/xlink" x="0px" y="0px"
	 viewBox="0 0 874 500" style="enable-background:new 0 0 874 500;" xml:space="preserve">
<style type="text/css">
	.st0{fill:#0084D2;}
	.st1{fill:#006FC6;}
	.st2{fill:#009CDE;}
	.st3{fill:#FFFFFF;}
	.st4{fill:#1F93D7;}
	.st5{clip-path:url(#XMLID_2_);}
	.st6{fill:none;stroke:#FFFFFF;stroke-width:0.5;stroke-miterlimit:10;}
</style>
<rect class="st0" width="874" height="500"/>
<rect class="st1" width="351" height="500"/>
<rect x="360" class="st2" width="12" height="500"/>
<g>
	<g>
		<path class="st3" d="M398.6,203.3v-53h14.8c5.3,0,9.4,1.2,12.3,3.5c2.9,2.3,4.4,5.8,4.4,10.5c0,2.7-0.7,5.1-2.2,7.1
			c-1.5,2-3.5,3.4-6,4.2c3.1,0.6,5.6,2.1,7.5,4.5s2.9,5.3,2.9,8.5c0,4.7-1.5,8.4-4.4,10.9c-2.9,2.5-6.9,3.8-11.8,3.8H398.6z
			 M402.7,174h11.6c3.7,0,6.5-0.8,8.5-2.5c2-1.7,3-4.2,3-7.4c0-3.3-1.1-5.9-3.2-7.5c-2.1-1.7-5.2-2.5-9.3-2.5h-10.6V174z
			 M402.7,177.8v21.8H416c3.7,0,6.7-1,8.8-2.9c2.1-1.9,3.2-4.6,3.2-8.1c0-3.2-1-5.8-2.9-7.8c-1.9-2-4.7-3-8.4-3H402.7z"/>
		<path class="st3" d="M439.2,183c0-5.8,1.5-10.5,4.6-14.3c3-3.7,7.1-5.6,12.1-5.6c5,0,9.1,1.9,12.1,5.6c3,3.7,4.6,8.5,4.6,14.3v1.2
			c0,5.8-1.5,10.6-4.5,14.3c-3,3.7-7,5.5-12,5.5c-5.1,0-9.1-1.8-12.1-5.5c-3-3.7-4.6-8.5-4.6-14.3V183z M443.4,184.2
			c0,4.6,1.1,8.4,3.3,11.5c2.2,3.1,5.3,4.7,9.2,4.7c3.9,0,6.9-1.5,9.1-4.7c2.2-3.1,3.3-6.9,3.3-11.5V183c0-4.5-1.1-8.3-3.3-11.4
			c-2.2-3.1-5.3-4.7-9.2-4.7c-3.9,0-6.9,1.6-9.1,4.7c-2.2,3.1-3.3,6.9-3.3,11.4V184.2z"/>
		<path class="st3" d="M485.8,203.3h-4.1v-56.7h4.1V203.3z"/>
		<path class="st3" d="M519.9,193.2c0-1.8-0.7-3.4-2.2-4.8c-1.4-1.4-4.1-2.5-7.8-3.4c-4.5-1-7.8-2.4-10-4c-2.1-1.7-3.2-4-3.2-7.1
			c0-3,1.2-5.5,3.6-7.6c2.4-2.1,5.6-3.1,9.6-3.1c4.2,0,7.6,1.1,10.1,3.3c2.5,2.2,3.7,4.9,3.5,8.2l-0.1,0.2h-3.9c0-2.2-0.9-4-2.6-5.6
			s-4.1-2.4-7.1-2.4c-3,0-5.3,0.7-6.8,2c-1.5,1.4-2.3,3-2.3,4.8c0,1.8,0.7,3.3,2,4.5c1.3,1.2,3.9,2.2,7.8,3.1c4.5,1,7.8,2.5,10,4.3
			c2.2,1.8,3.3,4.3,3.3,7.4c0,3.3-1.3,5.9-3.8,8c-2.5,2-5.9,3-10.1,3c-4.6,0-8.2-1.1-10.8-3.4c-2.6-2.3-3.8-5-3.7-8.1l0.1-0.2h3.8
			c0.2,2.8,1.3,4.9,3.3,6.2c2.1,1.3,4.5,1.9,7.2,1.9c3,0,5.4-0.7,7.1-2.1C519,196.9,519.9,195.2,519.9,193.2z"/>
		<path class="st3" d="M557.4,203.3c-0.3-1.3-0.5-2.5-0.6-3.5s-0.2-2-0.2-2.9c-1.4,2.1-3.2,3.8-5.6,5.1c-2.3,1.4-4.9,2-7.8,2
			c-3.7,0-6.5-1-8.5-3.1c-2-2-3-4.8-3-8.2c0-3.6,1.5-6.5,4.5-8.7c3-2.2,7.1-3.3,12.2-3.3h8.3v-4.9c0-2.8-0.9-5-2.6-6.6
			s-4.1-2.4-7.2-2.4c-2.9,0-5.3,0.8-7.2,2.3c-1.9,1.5-2.9,3.4-2.9,5.6l-3.8,0l-0.1-0.2c-0.1-2.9,1.1-5.6,3.8-7.9
			c2.7-2.3,6.1-3.5,10.3-3.5c4.1,0,7.5,1.1,10,3.3c2.5,2.2,3.8,5.4,3.8,9.5v19.4c0,1.4,0.1,2.7,0.2,4c0.2,1.3,0.4,2.6,0.7,3.9H557.4
			z M543.7,200.2c3,0,5.6-0.7,7.9-2.2c2.3-1.5,4-3.3,5-5.6v-8.2h-8.4c-3.8,0-6.8,0.8-9.1,2.5c-2.3,1.7-3.4,3.8-3.4,6.3
			c0,2.1,0.7,3.9,2.1,5.2C539.3,199.5,541.3,200.2,543.7,200.2z"/>
		<path class="st3" d="M587.5,183.9c0-6.3,1.3-11.3,3.8-15.1s6.1-5.7,10.6-5.7c2.6,0,4.9,0.6,6.8,1.7c1.9,1.2,3.5,2.8,4.8,4.9v-23.4
			h4.1v56.7H614l-0.3-5.7c-1.3,2.1-2.9,3.7-4.8,4.8c-2,1.1-4.3,1.7-7,1.7c-4.5,0-8-1.8-10.6-5.3c-2.5-3.5-3.8-8.2-3.8-14.1V183.9z
			 M591.7,184.7c0,4.8,0.9,8.6,2.7,11.4c1.8,2.8,4.6,4.2,8.2,4.2c2.7,0,4.9-0.6,6.7-1.9c1.8-1.3,3.2-3,4.2-5.3v-18.6
			c-1-2.3-2.3-4.1-4-5.6c-1.7-1.4-4-2.1-6.8-2.1c-3.7,0-6.4,1.6-8.3,4.7c-1.8,3.2-2.8,7.3-2.8,12.3V184.7z"/>
		<path class="st3" d="M642.9,204c-4.7,0-8.6-1.8-11.7-5.5c-3.1-3.6-4.7-8.2-4.7-13.8v-2c0-5.6,1.5-10.3,4.6-14
			c3.1-3.7,6.8-5.6,11.2-5.6c4.6,0,8.2,1.5,10.9,4.6c2.6,3.1,4,7.1,4,12.2v3.7h-26.6v1.1c0,4.4,1.1,8.1,3.4,11.1
			c2.2,3,5.2,4.5,8.9,4.5c2.6,0,4.8-0.4,6.6-1.1c1.8-0.8,3.4-1.8,4.7-3.2l1.8,3c-1.4,1.6-3.2,2.8-5.4,3.7S645.9,204,642.9,204z
			 M642.4,166.9c-3.1,0-5.7,1.2-7.8,3.7c-2.1,2.5-3.3,5.5-3.7,9.2l0.1,0.2h22v-1.1c0-3.4-1-6.3-2.9-8.6S645.7,166.9,642.4,166.9z"/>
		<path class="st3" d="M466.5,225.8h-17.4v49.3h-4.2v-49.3h-17.4v-3.7h39V225.8z"/>
		<path class="st3" d="M488.3,239.5l-3.1-0.2c-2.6,0-4.8,0.8-6.4,2.3c-1.7,1.5-2.9,3.7-3.6,6.3v27.2H471v-39.4h3.7l0.5,6.5v0.4
			c1.1-2.4,2.5-4.3,4.4-5.7c1.8-1.4,4-2,6.5-2c0.5,0,1,0,1.5,0.1c0.5,0.1,0.9,0.2,1.2,0.3L488.3,239.5z"/>
		<path class="st3" d="M519,275.1c-0.3-1.3-0.5-2.5-0.6-3.5c-0.1-1-0.2-2-0.2-2.9c-1.4,2.1-3.2,3.8-5.6,5.1c-2.3,1.4-4.9,2-7.8,2
			c-3.7,0-6.5-1-8.5-3.1c-2-2-3-4.8-3-8.2c0-3.6,1.5-6.5,4.5-8.7c3-2.2,7.1-3.3,12.2-3.3h8.3v-4.9c0-2.8-0.9-5-2.6-6.6
			c-1.7-1.6-4.1-2.4-7.2-2.4c-2.9,0-5.3,0.8-7.2,2.3c-1.9,1.5-2.9,3.4-2.9,5.6l-3.8,0l-0.1-0.2c-0.1-2.9,1.1-5.6,3.8-7.9
			c2.7-2.3,6.1-3.5,10.3-3.5c4.1,0,7.5,1.1,10,3.3c2.5,2.2,3.8,5.4,3.8,9.5v19.4c0,1.4,0.1,2.7,0.2,4c0.2,1.3,0.4,2.6,0.7,3.9H519z
			 M505.4,272c3,0,5.6-0.7,7.9-2.2c2.3-1.5,4-3.3,5-5.6V256h-8.4c-3.8,0-6.8,0.8-9.1,2.5c-2.3,1.7-3.4,3.8-3.4,6.3
			c0,2.1,0.7,3.9,2.1,5.2C500.9,271.3,502.9,272,505.4,272z"/>
		<path class="st3" d="M563.8,256.5c0,5.9-1.3,10.6-3.8,14.1s-6.1,5.3-10.5,5.3c-2.8,0-5.1-0.6-7.1-1.7c-2-1.2-3.6-2.8-4.8-5
			l-0.5,5.9h-3.6v-56.7h4.2v23.6c1.3-2.2,2.9-3.9,4.8-5.1s4.3-1.8,7-1.8c4.5,0,8.1,1.9,10.6,5.7c2.5,3.8,3.8,8.8,3.8,15.1V256.5z
			 M559.6,255.8c0-5-0.9-9.1-2.8-12.3c-1.9-3.2-4.6-4.7-8.2-4.7c-2.9,0-5.2,0.8-7,2.3c-1.8,1.5-3.1,3.4-3.9,5.8v17.9
			c0.9,2.3,2.3,4.1,4.2,5.5c1.8,1.4,4.1,2,6.9,2c3.6,0,6.4-1.4,8.2-4.2c1.8-2.8,2.7-6.6,2.7-11.4V255.8z"/>
		<path class="st3" d="M596.9,275.1c-0.3-1.3-0.5-2.5-0.6-3.5s-0.2-2-0.2-2.9c-1.4,2.1-3.2,3.8-5.6,5.1s-4.9,2-7.8,2
			c-3.7,0-6.5-1-8.5-3.1c-2-2-3-4.8-3-8.2c0-3.6,1.5-6.5,4.5-8.7c3-2.2,7.1-3.3,12.2-3.3h8.3v-4.9c0-2.8-0.9-5-2.6-6.6
			s-4.1-2.4-7.2-2.4c-2.9,0-5.3,0.8-7.2,2.3c-1.9,1.5-2.9,3.4-2.9,5.6l-3.8,0l-0.1-0.2c-0.1-2.9,1.1-5.6,3.8-7.9
			c2.7-2.3,6.1-3.5,10.3-3.5c4.1,0,7.5,1.1,10,3.3c2.5,2.2,3.8,5.4,3.8,9.5v19.4c0,1.4,0.1,2.7,0.2,4c0.2,1.3,0.4,2.6,0.7,3.9H596.9
			z M583.3,272c3,0,5.6-0.7,7.9-2.2c2.3-1.5,4-3.3,5-5.6V256h-8.4c-3.8,0-6.8,0.8-9.1,2.5c-2.3,1.7-3.4,3.8-3.4,6.3
			c0,2.1,0.7,3.9,2.1,5.2C578.8,271.3,580.8,272,583.3,272z"/>
		<path class="st3" d="M616.3,235.7v42.6c0,4-0.9,7.2-2.8,9.4c-1.9,2.2-4.4,3.3-7.7,3.3c-0.7,0-1.3-0.1-2-0.2
			c-0.6-0.1-1.3-0.3-1.9-0.5l0.5-3.7c0.4,0.1,0.9,0.2,1.5,0.4c0.6,0.1,1.2,0.2,1.7,0.2c2.1,0,3.7-0.7,4.8-2.2
			c1.2-1.5,1.7-3.7,1.7-6.6v-42.6H616.3z M616.1,224.3H612v-6h4.1V224.3z"/>
		<path class="st3" d="M625.9,254.8c0-5.8,1.5-10.5,4.6-14.3c3-3.7,7.1-5.6,12.1-5.6c5,0,9.1,1.9,12.1,5.6c3,3.7,4.6,8.5,4.6,14.3
			v1.2c0,5.8-1.5,10.6-4.5,14.3c-3,3.7-7,5.5-12,5.5c-5.1,0-9.1-1.8-12.1-5.5c-3-3.7-4.6-8.5-4.6-14.3V254.8z M630.1,256
			c0,4.6,1.1,8.4,3.3,11.5c2.2,3.1,5.3,4.7,9.2,4.7c3.9,0,6.9-1.5,9.1-4.7c2.2-3.1,3.3-6.9,3.3-11.5v-1.2c0-4.5-1.1-8.3-3.3-11.4
			c-2.2-3.1-5.3-4.7-9.2-4.7s-6.9,1.6-9.1,4.7c-2.2,3.1-3.3,6.9-3.3,11.4V256z"/>
	</g>
	<g>
		<path class="st4" d="M307.9,8.9h-25.4v68h-2.6v-68h-25.4V6.3h53.4V8.9z"/>
		<path class="st4" d="M339,26.3l-3.4-0.3c-4.6,0-8.4,1.5-11.3,4.5c-2.9,3-4.8,7-5.6,11.9v34.4h-2.6V24.4h2.1l0.5,9.1v1.8
			c1.4-3.7,3.6-6.7,6.4-8.7c2.8-2.1,6.3-3.1,10.5-3.1c0.7,0,1.4,0.1,2,0.2c0.6,0.1,1.2,0.2,1.6,0.4L339,26.3z"/>
		<path class="st4" d="M382.2,67.1c-1.8,3.2-4.5,5.7-8,7.7c-3.5,2-7.8,3-12.9,3c-4.8,0-8.6-1.3-11.4-4c-2.7-2.7-4.1-6.3-4.1-10.8
			c0-4.4,2.1-8.1,6.2-11c4.1-3,9.2-4.5,15.4-4.5h14.8v-7.7c0-4.4-1.4-7.8-4.1-10.2c-2.8-2.4-6.6-3.7-11.7-3.7
			c-4.7,0-8.5,1.1-11.3,3.4c-2.9,2.3-4.3,5.3-4.3,8.9l-2.2-0.1l-0.1-0.2c-0.2-4.1,1.4-7.5,4.7-10.3c3.3-2.8,7.7-4.2,13.2-4.2
			c5.6,0,10,1.4,13.4,4.3c3.4,2.8,5,6.9,5,12.3v26.3c0,1.8,0.1,3.6,0.3,5.4c0.2,1.7,0.6,3.5,1,5.2h-2.9c-0.4-2.3-0.7-4-0.8-5.2
			c-0.1-1.1-0.2-2.4-0.2-3.7V67.1z M361.3,75.3c5.1,0,9.5-1.1,13.1-3.4c3.6-2.3,6.2-5.6,7.8-9.8V50.2h-14.7c-5.4,0-9.9,1.3-13.6,3.8
			c-3.7,2.5-5.5,5.6-5.5,9.3c0,3.5,1.2,6.4,3.5,8.7S357.5,75.3,361.3,75.3z"/>
		<path class="st4" d="M442.1,51.6c0,8.1-1.7,14.5-5.2,19.2s-8.2,7.1-14.3,7.1c-4.1,0-7.6-0.8-10.7-2.5c-3-1.7-5.4-3.9-7.1-6.8
			l-0.3,8.2h-2.2V1.2h2.6v32.5c1.7-3.2,4.1-5.7,7-7.6c3-1.8,6.5-2.8,10.5-2.8c6.1,0,10.9,2.4,14.3,7.3c3.5,4.9,5.2,11.5,5.2,19.8
			V51.6z M439.4,50.6c0-7.3-1.4-13.2-4.3-17.7c-2.9-4.5-7-6.8-12.5-6.8c-5,0-8.9,1.3-11.7,3.8s-4.8,5.7-5.9,9.4v24.6
			c1.3,3.5,3.4,6.2,6.4,8.3c3,2.1,6.8,3.1,11.3,3.1c5.5,0,9.6-2.1,12.5-6.4c2.8-4.3,4.3-10,4.3-17.3V50.6z"/>
		<path class="st4" d="M489.6,67.1c-1.8,3.2-4.5,5.7-8,7.7c-3.5,2-7.8,3-12.9,3c-4.8,0-8.6-1.3-11.4-4c-2.7-2.7-4.1-6.3-4.1-10.8
			c0-4.4,2.1-8.1,6.2-11c4.1-3,9.2-4.5,15.4-4.5h14.8v-7.7c0-4.4-1.4-7.8-4.1-10.2c-2.8-2.4-6.6-3.7-11.7-3.7
			c-4.7,0-8.5,1.1-11.3,3.4c-2.9,2.3-4.3,5.3-4.3,8.9l-2.2-0.1L456,38c-0.2-4.1,1.4-7.5,4.7-10.3c3.3-2.8,7.7-4.2,13.2-4.2
			c5.6,0,10,1.4,13.4,4.3c3.4,2.8,5,6.9,5,12.3v26.3c0,1.8,0.1,3.6,0.3,5.4c0.2,1.7,0.6,3.5,1,5.2h-2.9c-0.4-2.3-0.7-4-0.8-5.2
			c-0.1-1.1-0.2-2.4-0.2-3.7V67.1z M468.8,75.3c5.1,0,9.5-1.1,13.1-3.4c3.6-2.3,6.2-5.6,7.8-9.8V50.2H475c-5.4,0-9.9,1.3-13.6,3.8
			c-3.7,2.5-5.5,5.6-5.5,9.3c0,3.5,1.2,6.4,3.5,8.7S464.9,75.3,468.8,75.3z"/>
		<path class="st4" d="M513.1,24.4v56.8c0,5.4-1.2,9.6-3.6,12.5c-2.4,2.9-5.7,4.4-10.1,4.4c-0.9,0-1.8-0.1-2.6-0.2
			c-0.8-0.2-1.7-0.4-2.7-0.7l0.6-2.5c0.6,0.2,1.3,0.4,2.2,0.6c0.9,0.2,1.7,0.3,2.5,0.3c3.5,0,6.2-1.2,8.2-3.7
			c1.9-2.5,2.9-6,2.9-10.5V24.4H513.1z M512.8,7.7h-2.6V1.2h2.6V7.7z"/>
		<path class="st4" d="M528.1,49.6c0-7.7,2.1-14,6.3-18.9c4.2-4.9,9.6-7.3,16.4-7.3c6.7,0,12.2,2.4,16.4,7.3
			c4.2,4.9,6.3,11.2,6.3,18.9v2c0,7.7-2.1,14-6.3,18.9c-4.2,4.9-9.6,7.3-16.3,7.3c-6.7,0-12.2-2.4-16.4-7.3
			c-4.2-4.9-6.3-11.2-6.3-18.9V49.6z M530.7,51.6c0,6.6,1.8,12.2,5.5,16.7c3.6,4.6,8.5,6.9,14.7,6.9c6.1,0,10.9-2.3,14.6-6.9
			c3.6-4.6,5.5-10.2,5.5-16.7v-2c0-6.4-1.8-12-5.5-16.6c-3.7-4.6-8.5-7-14.6-7c-6.1,0-11,2.3-14.6,7c-3.6,4.6-5.5,10.2-5.5,16.6
			V51.6z"/>
		<path class="st4" d="M650.9,42.1h-35.7v34.7h-2.6V6.3h43.2v2.6h-40.6v30.5h35.7V42.1z"/>
		<path class="st4" d="M674.2,76.8h-2.6V6.3h2.6V76.8z"/>
		<path class="st4" d="M743.2,6.3v47.8c0,7.7-2.2,13.6-6.6,17.6c-4.4,4.1-10.1,6.1-17.2,6.1c-7.1,0-12.9-2-17.3-6.1
			c-4.4-4.1-6.6-10-6.6-17.6V6.3h2.6v47.8c0,6.6,2,11.8,5.9,15.5c4,3.7,9.1,5.6,15.3,5.6c6.2,0,11.3-1.9,15.3-5.6
			c4-3.7,5.9-8.9,5.9-15.5V6.3H743.2z"/>
		<path class="st4" d="M762.6,76.8V6.3H781c7.2,0,12.8,1.5,16.8,4.5c4,3,6,7.5,6,13.6c0,4.2-1.1,7.7-3.2,10.6
			c-2.1,2.9-5.2,4.7-9.1,5.4c4.3,0.6,8,2.5,11,5.8c3,3.3,4.5,7,4.5,11.3c0,6.2-2,11-5.9,14.3c-3.9,3.4-9.2,5.1-15.6,5.1H762.6z
			 M765.2,39.4h16.7c6.4,0,11.1-1.3,14.4-3.8c3.2-2.5,4.8-6.3,4.8-11.5c0-5-1.7-8.8-5.1-11.4c-3.4-2.6-8.4-3.9-15.1-3.9h-15.8V39.4z
			 M765.2,42v32.2h20.2c5.9,0,10.5-1.5,13.9-4.4c3.4-2.9,5.1-7,5.1-12.3c0-4.3-1.6-8-4.9-11c-3.2-3-7.8-4.5-13.6-4.5H765.2z"/>
		<path class="st4" d="M859.5,55.7h-34.1l-7.8,21.1h-2.8l26.1-70.6h3.2l26.1,70.6h-2.8L859.5,55.7z M826.4,53.1h32.2l-14.6-39.7
			l-1.3-4h-0.3l-1.3,4L826.4,53.1z"/>
	</g>
	<g id="XMLID_1505_">
		<g id="XMLID_1572_">
			<path id="XMLID_1584_" class="st3" d="M689.3,395.9H686v-2.2h3.3v-2.8c0-3.3,0.7-5.7,5.2-5.7c0.8,0,1.2,0,1.7,0.1v2.2
				c-0.4-0.1-0.8-0.1-1.3-0.1c-2,0-2.9,0.8-2.9,3.5v2.8h4.2v2.2H692v21.6h-2.7V395.9z"/>
			<path id="XMLID_1581_" class="st3" d="M700.2,385.5h2.7v4.6h-2.7V385.5z M700.2,393.7h2.7v23.8h-2.7V393.7z"/>
			<path id="XMLID_1579_" class="st3" d="M709.2,393.7h2.7v16.8c0,3.9,1.3,5.3,4.1,5.3c3.1,0,5.2-2.4,5.2-6.1v-16h2.7v23.8h-2.4
				v-3.3h-0.1c-1.3,2.6-3.7,3.9-6.1,3.9c-3.6,0-6.1-1.9-6.1-6.4V393.7z"/>
			<path id="XMLID_1576_" class="st3" d="M729.7,385.5h2.7v11.8h0.1c0.6-2.5,2.6-4.1,5.6-4.1c5.2,0,7.6,4.2,7.6,12.4
				c0,8.3-2.4,12.5-7.6,12.5c-2.8,0-5.1-1.7-5.8-4.5h-0.1v3.9h-2.4V385.5z M737.6,415.8c2.7,0,5.2-1.4,5.2-10.2
				c0-8.8-2.5-10.2-5.2-10.2c-2.7,0-5.2,1.4-5.2,10.2C732.4,414.4,734.9,415.8,737.6,415.8z"/>
			<path id="XMLID_1573_" class="st3" d="M750.3,400.8c0-4.9,2.3-7.6,7.4-7.6c4.9,0,6.7,2.6,6.7,6.3v14.1c0,1.3,0.4,2,1.4,2h0.8v2
				c-0.5,0.2-0.9,0.3-1.3,0.3c-2.1,0-3.5-0.5-3.5-3V414h-0.1c-1.1,3.1-3.5,4-6.1,4c-4.2,0-6.1-2.6-6.1-6.7c0-3.1,1.4-5.7,4.8-6.6
				l5.1-1.4c1.9-0.5,2.3-1,2.3-3.8c0-3.1-1.7-4.1-4.1-4.1c-3.2,0-4.6,1.9-4.6,5.4H750.3z M761.7,404L761.7,404
				c-0.4,0.8-1.9,1.3-3,1.6l-2.2,0.6c-2.7,0.7-4.1,2.1-4.1,4.9c0,2.8,1.4,4.7,3.8,4.7c3.3,0,5.5-2.5,5.5-6.7V404z"/>
		</g>
		<g id="XMLID_1562_">
			<path id="XMLID_1570_" class="st3" d="M635.4,408.5c0,6.4-3.8,9.5-10.1,9.5c-6.3,0-10-3.1-10-9.5v-14.7h5.2v14.7
				c0,2.6,0.7,5.1,4.9,5.1c3.7,0,4.9-1.6,4.9-5.1v-14.7h5.2V408.5z"/>
			<path id="XMLID_1566_" class="st3" d="M639.9,393.9H651c4.5,0,7.5,1.5,7.5,5.8c0,2.3-1.2,3.9-3.2,4.9c2.9,0.8,4.3,3,4.3,6
				c0,4.8-4.1,6.8-8.3,6.8h-11.4V393.9z M645.1,403.4h5.2c1.8,0,3.2-0.8,3.2-2.8c0-2.2-1.7-2.7-3.6-2.7h-4.9V403.4z M645.1,413.4
				h5.5c2,0,3.8-0.7,3.8-3.1c0-2.4-1.5-3.4-3.7-3.4h-5.6V413.4z"/>
			<path id="XMLID_1563_" class="st3" d="M669.6,393.9h5.3l8.8,23.6h-5.4l-1.8-5.2h-8.8l-1.8,5.2h-5.2L669.6,393.9z M669.1,408.3
				h6.1l-3-8.6h-0.1L669.1,408.3z"/>
		</g>
		<path id="XMLID_1561_" class="st3" d="M612.4,414.6c0,1.8-1.4,3.2-3.2,3.2c-1.8,0-3.2-1.4-3.2-3.2c0-1.8,1.4-3.2,3.2-3.2
			C611,411.4,612.4,412.8,612.4,414.6z"/>
		<g id="XMLID_1513_">
			<path id="XMLID_1559_" class="st3" d="M688.6,427.2h4.7v0.7h-3.8v3.5h3.6v0.7h-3.6v4.6h-0.8V427.2z"/>
			<path id="XMLID_1556_" class="st3" d="M696.2,427.2h1.1l2.8,9.5h-0.9l-0.8-2.8h-3.3l-0.8,2.8h-0.9L696.2,427.2z M698.2,433.2
				l-1.5-5.3h0l-1.5,5.3H698.2z"/>
			<path id="XMLID_1554_" class="st3" d="M707,433.5c-0.1,2.2-1.1,3.4-2.8,3.4c-1.9,0-3-1.5-3-4.9s1.1-4.9,3-4.9
				c1.9,0,2.7,1.4,2.7,2.9H706c0-1.3-0.6-2.2-1.9-2.2c-1.4,0-2.2,1.1-2.2,4.2c0,3.1,0.8,4.2,2.2,4.2c1.2,0,1.9-1,2-2.7H707z"/>
			<path id="XMLID_1552_" class="st3" d="M708.4,427.2h0.8v6.8c0,1.4,0.6,2.1,1.9,2.1c1.2,0,1.9-0.7,1.9-2.1v-6.8h0.8v6.8
				c0,2-1,2.8-2.7,2.8c-1.7,0-2.7-0.8-2.7-2.8V427.2z"/>
			<path id="XMLID_1550_" class="st3" d="M715.5,427.2h0.8v8.8h3.9v0.7h-4.8V427.2z"/>
			<path id="XMLID_1548_" class="st3" d="M722.4,427.9h-2.4v-0.7h5.7v0.7h-2.4v8.8h-0.8V427.9z"/>
			<path id="XMLID_1545_" class="st3" d="M728.2,427.2h1.1l2.8,9.5h-0.9l-0.8-2.8h-3.3l-0.8,2.8h-0.9L728.2,427.2z M730.2,433.2
				l-1.5-5.3h0l-1.5,5.3H730.2z"/>
			<path id="XMLID_1542_" class="st3" d="M733.2,427.2h2.3c2.8,0,3.4,1.6,3.4,4.7c0,3.1-0.7,4.7-3.4,4.7h-2.3V427.2z M734,435.9h1.4
				c1.9,0,2.6-0.9,2.6-4c0-3.1-0.8-4-2.6-4H734V435.9z"/>
			<path id="XMLID_1539_" class="st3" d="M744.3,427.2h2.3c2.8,0,3.4,1.6,3.4,4.7c0,3.1-0.7,4.7-3.4,4.7h-2.3V427.2z M745.1,435.9
				h1.4c1.9,0,2.6-0.9,2.6-4c0-3.1-0.8-4-2.6-4h-1.4V435.9z"/>
			<path id="XMLID_1537_" class="st3" d="M751.8,427.2h4.7v0.7h-3.8v3.5h3.6v0.7h-3.6v3.9h4v0.7h-4.8V427.2z"/>
			<path id="XMLID_1535_" class="st3" d="M761.7,427.2h0.8v9.5h-0.8V427.2z"/>
			<path id="XMLID_1533_" class="st3" d="M764.5,427.2h1.1l3.6,8.3h0v-8.3h0.8v9.5H769l-3.6-8.3h0v8.3h-0.8V427.2z"/>
			<path id="XMLID_1531_" class="st3" d="M774.7,432.5v-0.7h3v4.8h-0.7v-1.6h0c-0.3,1-1.1,1.7-2.1,1.7c-1.9,0-3-1.5-3-4.9
				s1.1-4.9,3-4.9c1.8,0,2.6,1.2,2.7,2.8h-0.8c0-1.1-0.6-2.1-1.9-2.1c-1.4,0-2.2,1.1-2.2,4.2c0,3.1,0.8,4.2,2.2,4.2
				c1.3,0,2-1.1,2-3.4v-0.2H774.7z"/>
			<path id="XMLID_1529_" class="st3" d="M779.6,427.2h4.7v0.7h-3.8v3.5h3.6v0.7h-3.6v3.9h4v0.7h-4.8V427.2z"/>
			<path id="XMLID_1527_" class="st3" d="M785.9,427.2h1.1l3.6,8.3h0v-8.3h0.8v9.5h-1.1l-3.6-8.3h0v8.3h-0.8V427.2z"/>
			<path id="XMLID_1525_" class="st3" d="M793.4,427.2h0.8v9.5h-0.8V427.2z"/>
			<path id="XMLID_1523_" class="st3" d="M796.2,427.2h4.7v0.7h-3.8v3.5h3.6v0.7h-3.6v3.9h4v0.7h-4.8V427.2z"/>
			<path id="XMLID_1520_" class="st3" d="M802.5,427.2h2.8c1.6,0,2.5,0.9,2.5,2.4c0,1.1-0.5,2.2-1.7,2.4v0c1.2,0.1,1.6,0.8,1.6,2.2
				l0,1c0,0.5,0.1,1,0.4,1.4h-1c-0.2-0.3-0.2-0.8-0.3-1.3l0-0.8c-0.1-1.7-0.4-2.2-1.9-2.2h-1.6v4.3h-0.8V427.2z M803.4,431.6h1.5
				c1.3,0,2.1-0.6,2.1-1.9c0-1.2-0.5-1.9-2-1.9h-1.6V431.6z"/>
			<path id="XMLID_1517_" class="st3" d="M811.4,424.9l-1.3,1.9h-0.6l1-1.9H811.4z M809.6,427.2h0.8v9.5h-0.8V427.2z"/>
			<path id="XMLID_1514_" class="st3" d="M814.4,427.2h1.1l2.8,9.5h-0.9l-0.8-2.8h-3.3l-0.8,2.8h-0.9L814.4,427.2z M816.4,433.2
				l-1.5-5.3h0l-1.5,5.3H816.4z"/>
		</g>
		<g id="XMLID_1506_">
			<g id="XMLID_1510_">
				<g id="XMLID_1511_">
					<defs>
						<path id="XMLID_1512_" d="M773.8,398.4c0,12,9.7,21.7,21.7,21.7c12,0,21.7-9.7,21.7-21.7c0-12-9.7-21.7-21.7-21.7
							C783.6,376.7,773.8,386.4,773.8,398.4"/>
					</defs>
					<clipPath id="XMLID_2_">
						<use xlink:href="#XMLID_1512_"  style="overflow:visible;"/>
					</clipPath>
					<g class="st5">
						<path class="st3" d="M788.4,394.7c0,0-4.7-4.2-4.5-2.4l0,1C783.9,393.3,788,395,788.4,394.7z"/>
						<path class="st3" d="M819.6,395.9L819.6,395.9c0-0.2,0-0.3-0.1-0.5c-1.2-9-7.3-15.9-12.4-18.3c0,0-4.6-2.9-11.9-2.9
							c-7.2,0-12.9,3.9-12.9,3.9v2.2l1-0.7l2.4-1.8l6.1-1.7l3.1-0.5l7.6,1.2c0,0,5.8,2.7,2.5,1.5c-4-1.4-5.2,1.4-5.2,1.4
							c-0.2-0.4-2.2-1.2-3.8-0.5c-2.1,1-2.3,3.1-1.5,5c-2.7-0.9-6.5,2.3-9.6,3c-0.7,0.2-1.3,0.3-1.9,0.4c0.1,0.1,0.3,0.2,0.4,0.4
							c0.9,0.8,6.7-1.7,6.7-1.7s1.7-0.8,3.5-1c2.7-0.2,1.4,3.1,1.4,3.1c-0.8-2.2-3.7-1-3.7-1l-7.5,2.6c0,0,7.9,5.2,8.5,5.6
							c0.6,0.4,1.3,1.1,1.3,1.9c0,0.7,0.5,1.3,0.9,1.4c0.5,0.1,0.5,0.4,0.5,0.4s-1.6,6.1,3.8,9.4c4,2.4,6.3-2.5,6.4-3
							c4.1,3.2,2.2,7.3,1.8,7.9v0c0,0-0.7,2.1-3,1.9c-2.2-0.2,1.4-0.9-0.2-3.4c0,0-0.6-1.2-1.2-0.1c-0.7,1.2-1.8,2.4-3.2,2.7
							c-1.2,0.2-2.6-0.2-4-1.5c-1.3-1.3-3.5-4.5-2-8.5c0,0-0.4-0.3-0.8,0.1c-0.4,0.3-2.5,1.1-3.1-1.9c0,0,0.4-0.2,0.5,0
							c0.1,0.2,2.1,0.7,2.9-1.1c0.9-2.1-0.9-3.1-1-3.1c-0.1-0.1-1.4-0.6-1.5-2.4c0-0.9-3.7-1.1-3.8-1c-0.1,0.1,0.9,0.5,0.9,0.7
							c-0.1,0.2-0.9-0.1-1,0.2c-0.1,0.3-0.7,0.7-0.9,0.6c-0.2-0.1-0.2-1.6-0.7-1.8c-0.5-0.2-0.6-0.4-1.1-0.2c0,0-0.8,4.2-1.2,5.3
							c-0.4,1-0.4,1.6,1.2,1.4c0,0,0.3,0,0.5,0.3c0.1,0.3-0.1,1,0.4,1.2c0.7,0.2,0.6,2.2,0.6,2.3c0,0.1,0.5,1.6,1.9,1.5
							c1.4,0,2.8-0.4,3-0.3c0.2,0.1-0.3,5-2.4,7c-2.1,2-4.2,2.5-5.3,2.5v2.8c0,0,5.7,3.9,13,3.9c7.3,0,11.8-3,11.8-3v0
							C821.7,411.4,819.6,395.9,819.6,395.9z M790.4,388.9c4.1-0.9,2.9,2.8,2.9,2.8C789.7,392.2,790.4,388.9,790.4,388.9z
							 M792.3,393.4c0.4-1,2-0.6,2-0.6c-0.1-1.7,0.9-1.9,0.9-1.9c1.1-0.5,2.6,2.6,0.7,3.7C794.1,395.7,791.8,394.4,792.3,393.4z
							 M794.9,396.2c0.5-1,2-0.5,2-0.5c0-1.7,1-1.9,1-1.9c1.1-0.4,2.4,2.7,0.5,3.8C796.6,398.6,794.4,397.2,794.9,396.2z
							 M796.9,399.1c0.7-0.9,2.1,0,2.1,0c0.3-1.7,1.4-1.6,1.4-1.6c1.2-0.1,1.7,3.2-0.4,3.8C798,401.9,796.2,400,796.9,399.1z
							 M806.1,399.9c-0.5,0.4-1.1,0.8-1.6,1.3c-1.2,1-1,1.4-1.1,1.8c-0.1,0.4,0.1,1.6-1.9,2c-2,0.3-2.7-2.1-2.5-2.5
							c0.2-0.4,2.3,0.1,2.3,0.1V402c0.5-0.3,0.3-0.8,0.3-0.8c4.8-2.2,5.9-6.4,5.3-9.5c-0.4-1.7-1.1-2.9-2-3.8
							c-0.7-0.7-1.7-1.3-2.1-1.6c-1.6-1-5-0.6-5-0.6c-1.1-0.7-1.9-1.6-2.2-2.6c-0.3-0.9,0.2-2,1-2.5c0.8-0.4,1.7-0.4,2.2,0
							c0.9,0.6,1.2,1.8,1.2,1.8s0.2-2,2.3-1.6c2.5,0.4,2.2,2.7,2.2,2.7c0.5-0.8,1.6-0.9,2.3-0.8c0,0,0,0,0,0
							c0.5,0.2,0.6,0.3,0.6,0.3s1.8,1.4,0.5,3.5c-1,1.6-1.6,0.9-0.6,2.6C807.5,389.8,810.2,395,806.1,399.9z"/>
						<path class="st3" d="M798.5,381.7c-0.9-1-1.9,0-1.9,0s-0.6,0.5,0,1.8c0.5,1.3,2.1,1.1,2.1,1.1
							C797.3,383.3,799.4,382.8,798.5,381.7z"/>
						<path class="st3" d="M807,385c0.1-1.3-1.4-1.2-1.4-1.2s-0.8,0-1.2,1.3c-0.4,1.3,0.8,2.2,0.8,2.2
							C805.2,385.5,806.9,386.4,807,385z"/>
						<path class="st3" d="M801.4,381.8c0,0-0.7,0.2-0.7,1.6c0,1.4,1.5,1.8,1.5,1.8c-0.7-1.7,1.5-1.5,0.9-2.8
							C802.7,381.2,801.4,381.8,801.4,381.8z"/>
					</g>
				</g>
			</g>
			<path id="XMLID_1507_" class="st3" d="M795.6,378c11.3,0,20.4,9.2,20.4,20.4c0,11.3-9.2,20.4-20.4,20.4
				c-11.3,0-20.4-9.2-20.4-20.4C775.1,387.2,784.3,378,795.6,378 M795.6,376.7c-12,0-21.7,9.7-21.7,21.7c0,12,9.7,21.7,21.7,21.7
				c12,0,21.7-9.7,21.7-21.7C817.3,386.4,807.6,376.7,795.6,376.7"/>
		</g>
	</g>
	<circle class="st6" cx="363" cy="172" r="1.5"/>
	<circle class="st6" cx="363" cy="172" r="1.5"/>
	<circle class="st6" cx="386" cy="181" r="1.5"/>
	<circle class="st6" cx="383" cy="235" r="1.5"/>
	<circle class="st3" cx="375" cy="181" r="1"/>
	<circle class="st3" cx="375" cy="187" r="1"/>
	<circle class="st3" cx="346" cy="227" r="1"/>
	<circle class="st3" cx="352.2" cy="227" r="1"/>
	<circle class="st3" cx="358.4" cy="227" r="1"/>
	<circle class="st3" cx="364.7" cy="227" r="1"/>
	<circle class="st3" cx="370.9" cy="227" r="1"/>
	<circle class="st3" cx="377.1" cy="227" r="1"/>
	<circle class="st3" cx="383.3" cy="227" r="1"/>
	<circle class="st3" cx="389.6" cy="227" r="1"/>
	<circle class="st3" cx="395.8" cy="227" r="1"/>
	<circle class="st3" cx="402" cy="227" r="1"/>
	<circle class="st3" cx="346" cy="235" r="1"/>
	<circle class="st3" cx="352.2" cy="235" r="1"/>
	<circle class="st3" cx="358.4" cy="235" r="1"/>
	<circle class="st3" cx="364.7" cy="235" r="1"/>
	<circle class="st3" cx="370.9" cy="235" r="1"/>
	<circle class="st3" cx="377.1" cy="235" r="1"/>
	<circle class="st3" cx="389.6" cy="235" r="1"/>
	<circle class="st3" cx="395.8" cy="235" r="1"/>
	<circle class="st3" cx="402" cy="235" r="1"/>
	<circle class="st3" cx="408" cy="235" r="1"/>
	<circle class="st6" cx="583" cy="316" r="1.5"/>
	<circle class="st6" cx="608" cy="308" r="1.5"/>
	<circle class="st6" cx="666" cy="310" r="1.5"/>
	<circle class="st6" cx="712" cy="255.8" r="1.5"/>
	<circle class="st3" cx="558.4" cy="308" r="1"/>
	<circle class="st3" cx="564.7" cy="308" r="1"/>
	<circle class="st3" cx="570.9" cy="308" r="1"/>
	<circle class="st3" cx="577.1" cy="308" r="1"/>
	<circle class="st3" cx="583.3" cy="308" r="1"/>
	<circle class="st3" cx="589.6" cy="308" r="1"/>
	<circle class="st3" cx="596" cy="308" r="1"/>
	<circle class="st3" cx="602" cy="308" r="1"/>
	<circle class="st6" cx="804" cy="309" r="1.5"/>
	<circle class="st6" cx="779" cy="274" r="1.5"/>
	<circle class="st6" cx="755" cy="265" r="1.5"/>
	<circle class="st3" cx="754.4" cy="309" r="1"/>
	<circle class="st3" cx="760.7" cy="309" r="1"/>
	<circle class="st3" cx="766.9" cy="309" r="1"/>
	<circle class="st3" cx="809.4" cy="309" r="1"/>
	<circle class="st3" cx="815.7" cy="309" r="1"/>
	<circle class="st3" cx="821.9" cy="309" r="1"/>
	<circle class="st3" cx="773.1" cy="309" r="1"/>
	<circle class="st3" cx="779.3" cy="309" r="1"/>
	<circle class="st3" cx="785.6" cy="309" r="1"/>
	<circle class="st3" cx="792" cy="309" r="1"/>
	<circle class="st3" cx="798" cy="309" r="1"/>
	<circle class="st3" cx="754.4" cy="303" r="1"/>
	<circle class="st3" cx="760.7" cy="303" r="1"/>
	<circle class="st3" cx="766.9" cy="303" r="1"/>
	<circle class="st3" cx="773.1" cy="303" r="1"/>
	<circle class="st3" cx="779.3" cy="303" r="1"/>
	<circle class="st3" cx="785.6" cy="303" r="1"/>
	<circle class="st3" cx="754.4" cy="256" r="1"/>
	<circle class="st3" cx="760.7" cy="256" r="1"/>
	<circle class="st3" cx="766.9" cy="256" r="1"/>
	<circle class="st3" cx="773.1" cy="256" r="1"/>
	<circle class="st3" cx="784" cy="256" r="1"/>
	<circle class="st3" cx="760.7" cy="265" r="1"/>
	<circle class="st3" cx="766.9" cy="265" r="1"/>
	<circle class="st3" cx="773.1" cy="265" r="1"/>
	<circle class="st3" cx="754.4" cy="274" r="1"/>
	<circle class="st3" cx="760.7" cy="274" r="1"/>
	<circle class="st3" cx="809.4" cy="274" r="1"/>
	<circle class="st3" cx="815.7" cy="274" r="1"/>
	<circle class="st3" cx="766.9" cy="274" r="1"/>
	<circle class="st3" cx="773.1" cy="274" r="1"/>
	<circle class="st3" cx="754.4" cy="283" r="1"/>
	<circle class="st3" cx="760.7" cy="283" r="1"/>
	<circle class="st3" cx="766.9" cy="283" r="1"/>
	<circle class="st3" cx="773.1" cy="283" r="1"/>
	<circle class="st3" cx="814" cy="256" r="1"/>
	<circle class="st3" cx="803" cy="256" r="1"/>
	<circle class="st3" cx="546" cy="316" r="1"/>
	<circle class="st3" cx="552.2" cy="316" r="1"/>
	<circle class="st3" cx="558.4" cy="316" r="1"/>
	<circle class="st3" cx="564.7" cy="316" r="1"/>
	<circle class="st3" cx="570.9" cy="316" r="1"/>
	<circle class="st3" cx="577.1" cy="316" r="1"/>
	<circle class="st3" cx="589.6" cy="316" r="1"/>
	<line class="st6" x1="409" y1="241.5" x2="378" y2="241.5"/>
	<line class="st6" x1="746.5" y1="255.8" x2="717" y2="255.8"/>
	<circle class="st6" cx="286" cy="228" r="1.5"/>
</g>
<rect x="792" class="st2" width="7" height="360"/>
</svg>
