<?xml version="1.0" standalone="no"?>
<!DOCTYPE svg PUBLIC "-//W3C//DTD SVG 20010904//EN"
 "http://www.w3.org/TR/2001/REC-SVG-20010904/DTD/svg10.dtd">
<svg version="1.0" xmlns="http://www.w3.org/2000/svg"
 width="1000.000000pt" height="1000.000000pt" viewBox="0 0 1000.000000 1000.000000"
 preserveAspectRatio="xMidYMid meet">
<metadata>
Created by potrace 1.15, written by Peter Selinger 2001-2017
</metadata>
<g transform="translate(0.000000,1000.000000) scale(0.100000,-0.100000)"
fill="#000000" stroke="none">
<path d="M3665 8441 c-22 -10 -53 -29 -70 -43 -16 -14 -57 -42 -90 -62 -125
-78 -178 -153 -156 -217 12 -36 7 -49 -18 -49 -10 0 -30 -12 -45 -26 -34 -34
-37 -108 -6 -147 l20 -25 -78 -55 c-340 -240 -559 -554 -617 -886 -20 -110
-19 -359 0 -479 27 -164 104 -367 193 -506 163 -255 431 -485 750 -645 747
-374 1911 -410 2732 -84 532 211 915 567 1067 991 62 175 77 263 77 482 1 206
-5 251 -51 395 -87 272 -307 545 -609 752 -70 48 -71 50 -58 74 35 63 -1 149
-68 163 -24 5 -29 9 -20 18 7 7 12 33 12 58 0 74 -46 118 -286 273 -48 31 -99
43 -141 32 -17 -4 -76 -55 -148 -126 l-120 -118 -55 14 c-95 25 -299 63 -445
82 -169 21 -651 24 -810 5 -156 -19 -334 -50 -459 -81 l-114 -28 -114 114
c-62 63 -125 121 -140 129 -36 19 -85 17 -133 -5z m278 -248 c213 -212 282
-293 362 -427 61 -103 243 -495 359 -775 41 -97 102 -239 136 -316 95 -213
122 -304 124 -405 1 -73 -2 -90 -23 -123 -38 -62 -98 -85 -259 -102 -541 -55
-1042 -40 -1422 44 -140 31 -194 27 -240 -19 l-21 -21 -20 23 c-140 164 -249
427 -249 599 0 92 -12 86 195 95 351 16 835 -87 1250 -266 66 -28 126 -54 133
-57 8 -4 6 12 -9 48 -49 122 -61 234 -63 574 -2 256 -4 288 -25 370 -34 132
-100 295 -133 328 -27 28 -31 28 -101 23 -62 -6 -81 -3 -142 20 -160 60 -267
93 -337 104 -82 12 -118 31 -118 60 0 17 7 20 48 20 43 -1 90 -14 179 -51 28
-11 39 -11 80 4 74 26 88 23 150 -38 57 -56 89 -72 119 -61 13 5 -6 30 -85
111 -108 111 -117 131 -86 185 23 41 17 43 -24 11 -21 -17 -44 -31 -50 -31 -7
0 -20 19 -31 43 l-19 42 0 -32 c-1 -46 -10 -63 -35 -63 -21 -1 -21 -1 -1 -16
11 -8 19 -20 17 -26 -2 -6 4 -8 15 -3 46 20 69 17 81 -10 7 -14 12 -30 12 -34
0 -12 -114 -34 -136 -27 -44 15 -144 124 -144 157 0 24 43 63 138 128 115 77
155 101 171 101 8 0 100 -84 204 -187z m2437 105 c122 -82 170 -125 170 -150
0 -23 -116 -147 -145 -154 -28 -7 -135 14 -135 26 0 5 5 21 12 35 12 27 35 30
81 10 13 -5 16 -3 11 8 -3 10 2 18 18 23 l23 8 -25 6 c-21 5 -25 12 -28 48 -3
40 -22 51 -22 13 0 -10 -9 -26 -20 -36 -18 -17 -21 -16 -60 15 -43 34 -50 29
-23 -17 26 -46 11 -76 -93 -183 -58 -60 -91 -101 -84 -105 23 -14 66 8 123 62
63 60 62 60 159 33 43 -13 49 -12 109 14 38 18 87 31 126 34 59 4 63 3 63 -16
0 -31 -35 -50 -118 -62 -70 -11 -177 -44 -337 -104 -60 -23 -80 -26 -141 -21
-66 6 -73 5 -101 -19 -34 -29 -90 -162 -131 -316 -23 -89 -25 -116 -33 -435
-7 -354 -14 -411 -58 -524 -15 -36 -17 -52 -9 -48 7 3 56 24 108 47 132 58
418 152 591 195 308 76 594 107 803 87 65 -6 121 -14 123 -16 10 -10 -30 -245
-54 -316 -41 -127 -112 -250 -221 -386 l-24 -29 -21 26 c-52 63 -109 71 -257
38 -317 -70 -747 -94 -1170 -65 -270 19 -370 30 -415 48 -93 35 -132 104 -122
216 8 91 45 206 132 402 40 91 94 217 120 280 66 161 195 450 275 618 123 257
219 381 513 665 114 110 135 127 157 122 14 -3 72 -38 130 -77z m-1115 -68
c204 -16 561 -73 582 -94 3 -3 -26 -39 -64 -79 -86 -93 -156 -194 -227 -328
-65 -124 -214 -452 -324 -714 -44 -104 -110 -259 -146 -343 -36 -84 -72 -173
-78 -197 -7 -25 -15 -45 -18 -45 -3 0 -16 32 -29 71 -13 40 -52 138 -88 218
-36 80 -97 223 -135 316 -112 269 -300 675 -358 772 -63 105 -125 188 -198
265 l-54 57 44 11 c135 37 439 83 618 93 131 8 345 6 475 -3z m1440 -461 c304
-206 499 -450 588 -734 13 -44 28 -103 32 -132 l7 -51 -179 5 c-260 8 -477
-17 -773 -92 -139 -35 -352 -102 -474 -149 l-69 -26 7 32 c18 91 28 289 22
450 -7 210 4 292 65 473 55 164 51 159 132 156 73 -3 153 16 227 54 50 25 136
51 240 70 36 7 66 13 68 14 2 0 50 -31 107 -70z m-3106 16 c53 -18 128 -45
166 -59 55 -21 86 -26 145 -24 l75 1 17 -34 c28 -59 85 -240 98 -309 7 -38 13
-188 15 -360 2 -162 8 -317 13 -345 5 -27 8 -52 7 -54 -2 -1 -66 20 -142 47
-187 68 -360 117 -533 152 -221 44 -329 53 -566 48 l-211 -5 9 56 c48 324 294
661 648 890 61 40 68 42 114 35 27 -3 92 -21 145 -39z m1414 -1695 c24 -40 91
-84 157 -104 65 -19 297 -41 605 -57 321 -16 669 10 998 77 118 23 130 24 152
10 28 -18 49 -52 40 -66 -3 -5 -47 -44 -98 -86 -962 -809 -2875 -782 -3776 52
-59 54 -69 69 -61 84 16 30 53 31 176 5 314 -64 678 -92 997 -76 305 16 542
38 602 55 67 20 139 67 161 105 10 17 21 31 24 31 3 0 14 -13 23 -30z"/>
<path d="M7536 4515 c-111 -39 -126 -73 -126 -287 0 -93 -2 -168 -5 -168 -2 0
-23 20 -45 44 -24 26 -65 54 -101 71 -57 25 -69 27 -163 23 -125 -5 -191 -32
-269 -110 -105 -107 -149 -236 -150 -443 -1 -140 11 -203 60 -298 74 -148 231
-227 447 -227 258 1 431 119 481 331 12 53 15 154 15 572 l0 507 -52 0 c-29
-1 -71 -7 -92 -15z m-259 -570 c95 -48 138 -151 131 -319 -8 -194 -83 -285
-233 -286 -150 0 -234 130 -223 346 5 93 34 181 76 228 52 58 166 72 249 31z"/>
<path d="M1520 4200 c-171 -36 -303 -182 -330 -365 -5 -38 -10 -211 -10 -382
l0 -313 125 0 125 0 0 333 c0 300 2 336 19 372 63 139 267 152 330 21 20 -40
21 -59 21 -384 l0 -342 125 0 125 0 0 333 c0 300 2 336 19 372 65 144 278 150
337 10 11 -28 14 -100 14 -375 l0 -340 125 0 125 0 0 339 c0 186 -5 363 -10
392 -14 76 -63 170 -115 222 -150 147 -412 154 -570 15 l-45 -40 -51 46 c-28
25 -75 54 -107 66 -65 25 -184 34 -252 20z"/>
<path d="M3220 4199 c-209 -23 -362 -154 -414 -356 -56 -217 -9 -463 112 -581
99 -96 230 -146 387 -145 113 0 202 19 277 60 65 35 152 124 183 187 l26 51
-142 3 c-140 3 -143 2 -168 -22 -40 -39 -93 -56 -169 -56 -79 0 -123 12 -171
48 -35 26 -74 101 -85 165 l-7 37 382 0 382 0 -7 101 c-3 55 -11 121 -17 147
-28 124 -124 254 -227 306 -95 48 -221 69 -342 55z m212 -254 c49 -35 86 -95
90 -146 l3 -34 -233 -3 -234 -2 7 32 c10 44 48 119 72 140 39 36 85 48 170 46
72 -3 86 -6 125 -33z"/>
<path d="M6023 4200 c-171 -31 -284 -131 -308 -275 -4 -22 -9 -48 -12 -57 -4
-17 7 -18 127 -18 l130 0 10 28 c31 86 72 112 178 112 40 0 88 -6 106 -14 88
-37 87 -143 -2 -177 -14 -6 -78 -17 -142 -25 -199 -26 -293 -59 -357 -126
-105 -109 -110 -317 -10 -425 79 -86 158 -108 361 -100 192 7 302 43 385 126
87 87 104 171 99 494 -3 232 -3 232 -32 290 -35 73 -83 109 -190 143 -91 29
-253 40 -343 24z m295 -639 c-6 -107 -26 -153 -85 -198 -49 -36 -133 -58 -189
-47 -20 4 -50 19 -67 34 -25 22 -31 36 -34 81 -8 101 36 136 211 171 55 11
112 26 126 34 14 7 29 13 34 14 5 0 7 -40 4 -89z"/>
<path d="M8120 4192 c-162 -43 -279 -167 -336 -357 -22 -74 -25 -245 -5 -325
21 -88 80 -198 136 -255 92 -95 204 -135 375 -135 233 0 376 82 466 267 135
278 37 649 -203 772 -101 51 -303 67 -433 33z m247 -217 c36 -11 62 -28 91
-59 55 -60 76 -132 75 -256 -1 -150 -41 -242 -126 -291 -34 -19 -56 -24 -117
-24 -64 0 -82 4 -122 28 -102 60 -149 218 -117 392 20 110 77 184 159 210 59
18 96 18 157 0z"/>
<path d="M4335 4190 c-173 -35 -300 -141 -367 -308 -22 -55 -23 -69 -26 -399
l-3 -343 135 0 136 0 0 298 c0 335 6 375 62 429 49 47 96 63 188 63 l80 0 0
135 0 135 -82 -1 c-46 -1 -101 -5 -123 -9z"/>
<path d="M4931 4184 c-161 -43 -272 -158 -327 -340 -14 -44 -19 -92 -19 -194
0 -159 20 -238 83 -336 94 -145 228 -201 454 -192 125 6 189 24 273 80 61 40
139 145 165 222 34 102 41 96 -125 96 -133 0 -145 -1 -145 -18 0 -10 -11 -40
-25 -68 -35 -70 -71 -89 -166 -89 -100 0 -148 29 -187 113 -36 77 -44 250 -17
350 32 118 122 182 238 168 83 -9 127 -50 160 -148 6 -16 22 -18 148 -18 l142
0 -6 48 c-20 167 -125 280 -303 327 -75 19 -270 19 -343 -1z"/>
<path d="M3298 2934 c-60 -18 -113 -68 -127 -119 -7 -27 -11 -234 -11 -648 l0
-608 128 3 127 3 3 693 2 692 -37 -1 c-21 0 -59 -7 -85 -15z"/>
<path d="M3630 2818 l0 -133 135 3 135 3 0 130 0 129 -135 0 -135 0 0 -132z"/>
<path d="M4236 2935 c-58 -21 -88 -46 -113 -95 -23 -44 -23 -48 -23 -472 0
-461 3 -493 53 -596 73 -150 228 -232 442 -232 269 0 421 104 491 335 25 82
25 293 0 384 -53 195 -177 321 -346 351 -127 23 -224 -5 -315 -91 l-55 -52 0
242 0 241 -47 0 c-27 -1 -66 -7 -87 -15z m458 -569 c48 -20 94 -82 118 -160
27 -90 22 -236 -11 -311 -43 -97 -99 -135 -198 -135 -148 1 -233 110 -233 301
0 153 43 251 129 296 51 27 142 31 195 9z"/>
<path d="M5645 2613 c-224 -31 -368 -150 -432 -358 -16 -53 -18 -99 -18 -375
l0 -315 131 -3 132 -3 5 303 c3 192 9 317 16 341 29 91 113 142 238 142 l73 0
0 138 0 137 -57 -1 c-32 -1 -71 -4 -88 -6z"/>
<path d="M6181 2600 c-93 -25 -152 -59 -217 -126 -96 -98 -137 -220 -137 -404
0 -186 39 -296 138 -389 98 -92 229 -141 382 -141 153 0 273 43 362 131 45 44
111 140 111 162 0 4 -64 7 -143 7 -142 0 -144 0 -168 -26 -36 -40 -80 -54
-166 -54 -146 1 -225 66 -248 208 l-7 42 378 0 377 0 -6 108 c-3 65 -14 133
-26 173 -45 143 -155 258 -289 300 -99 31 -246 35 -341 9z m232 -211 c73 -20
146 -110 147 -181 l0 -28 -231 0 -231 0 6 31 c16 79 76 157 137 176 45 14 125
15 172 2z"/>
<path d="M3630 2075 l0 -515 135 0 135 0 0 515 0 515 -135 0 -135 0 0 -515z"/>
</g>
</svg>
